<?xml version="1.0" encoding="UTF-8" standalone="no"?>
<!DOCTYPE svg PUBLIC "-//W3C//DTD SVG 1.1//EN"
 "http://www.w3.org/Graphics/SVG/1.1/DTD/svg11.dtd">
<!-- Generated by graphviz version 12.1.2 (20240928.0832)
 -->
<!-- Title: current_cart Pages: 1 -->
<svg width="715pt" height="571pt"
 viewBox="0.00 0.00 714.62 571.20" xmlns="http://www.w3.org/2000/svg" xmlns:xlink="http://www.w3.org/1999/xlink">
<g id="graph0" class="graph" transform="scale(1 1) rotate(0) translate(4 567.2)">
<title>current_cart</title>
<polygon fill="white" stroke="none" points="-4,4 -4,-567.2 710.62,-567.2 710.62,4 -4,4"/>
<!-- current_cart -->
<g id="node1" class="node">
<title>current_cart</title>
<polygon fill="#efefef" stroke="none" points="241.16,-481.4 241.16,-517 466.59,-517 466.59,-481.4 241.16,-481.4"/>
<polygon fill="none" stroke="black" points="241.16,-481.4 241.16,-517 466.59,-517 466.59,-481.4 241.16,-481.4"/>
<text text-anchor="start" x="248.16" y="-494.8" font-family="Arial Bold" font-size="18.00">current_cart</text>
<text text-anchor="start" x="335.1" y="-494.8" font-family="Arial" font-size="14.00">    </text>
<text text-anchor="start" x="366.22" y="-494.8" font-family="Arial" font-size="14.00" fill="#666666">[BASE TABLE]</text>
<polygon fill="none" stroke="black" points="241.16,-450.6 241.16,-481.4 466.59,-481.4 466.59,-450.6 241.16,-450.6"/>
<text text-anchor="start" x="248.16" y="-462.8" font-family="Arial" font-size="14.00">id </text>
<text text-anchor="start" x="262.94" y="-462.8" font-family="Arial" font-size="14.00" fill="#666666">[int]</text>
<polygon fill="none" stroke="black" points="241.16,-419.8 241.16,-450.6 466.59,-450.6 466.59,-419.8 241.16,-419.8"/>
<text text-anchor="start" x="248.16" y="-432" font-family="Arial" font-size="14.00">user_id </text>
<text text-anchor="start" x="297.96" y="-432" font-family="Arial" font-size="14.00" fill="#666666">[int]</text>
<polygon fill="none" stroke="black" points="241.16,-389 241.16,-419.8 466.59,-419.8 466.59,-389 241.16,-389"/>
<text text-anchor="start" x="248.16" y="-401.2" font-family="Arial" font-size="14.00">item_id </text>
<text text-anchor="start" x="297.18" y="-401.2" font-family="Arial" font-size="14.00" fill="#666666">[int]</text>
<polygon fill="none" stroke="black" points="241.16,-358.2 241.16,-389 466.59,-389 466.59,-358.2 241.16,-358.2"/>
<text text-anchor="start" x="248.16" y="-370.4" font-family="Arial" font-size="14.00">quantity </text>
<text text-anchor="start" x="301.08" y="-370.4" font-family="Arial" font-size="14.00" fill="#666666">[int]</text>
<polygon fill="none" stroke="black" stroke-width="3" points="239.66,-356.7 239.66,-518.5 468.09,-518.5 468.09,-356.7 239.66,-356.7"/>
</g>
<!-- users -->
<g id="node2" class="node">
<title>users</title>
<polygon fill="#efefef" stroke="none" points="105.32,-181.8 105.32,-217.4 308.42,-217.4 308.42,-181.8 105.32,-181.8"/>
<polygon fill="none" stroke="black" points="105.32,-181.8 105.32,-217.4 308.42,-217.4 308.42,-181.8 105.32,-181.8"/>
<text text-anchor="start" x="126.13" y="-195.2" font-family="Arial Bold" font-size="18.00">users</text>
<text text-anchor="start" x="163.12" y="-195.2" font-family="Arial" font-size="14.00">    </text>
<text text-anchor="start" x="194.24" y="-195.2" font-family="Arial" font-size="14.00" fill="#666666">[BASE TABLE]</text>
<polygon fill="none" stroke="black" points="105.32,-151 105.32,-181.8 308.42,-181.8 308.42,-151 105.32,-151"/>
<text text-anchor="start" x="112.32" y="-163.2" font-family="Arial" font-size="14.00">id </text>
<text text-anchor="start" x="127.11" y="-163.2" font-family="Arial" font-size="14.00" fill="#666666">[int]</text>
<polygon fill="none" stroke="black" points="105.32,-120.2 105.32,-151 308.42,-151 308.42,-120.2 105.32,-120.2"/>
<text text-anchor="start" x="112.32" y="-132.4" font-family="Arial" font-size="14.00">username </text>
<text text-anchor="start" x="178.47" y="-132.4" font-family="Arial" font-size="14.00" fill="#666666">[varchar(255)]</text>
<polygon fill="none" stroke="black" points="105.32,-89.4 105.32,-120.2 308.42,-120.2 308.42,-89.4 105.32,-89.4"/>
<text text-anchor="start" x="112.32" y="-101.6" font-family="Arial" font-size="14.00">email </text>
<text text-anchor="start" x="149.67" y="-101.6" font-family="Arial" font-size="14.00" fill="#666666">[varchar(255)]</text>
<polygon fill="none" stroke="black" points="105.32,-58.6 105.32,-89.4 308.42,-89.4 308.42,-58.6 105.32,-58.6"/>
<text text-anchor="start" x="112.32" y="-70.8" font-family="Arial" font-size="14.00">password_hash </text>
<text text-anchor="start" x="214.28" y="-70.8" font-family="Arial" font-size="14.00" fill="#666666">[varchar(255)]</text>
</g>
<!-- current_cart&#45;&gt;users -->
<g id="edge1" class="edge">
<title>current_cart:user_id&#45;&gt;users:id</title>
<path fill="none" stroke="black" d="M229.85,-434.13C189.77,-424.89 218.41,-357.54 241.16,-312 257.97,-278.34 291.57,-294.24 308.42,-260.6 327.17,-223.17 351.29,-166.4 309.42,-166.4"/>
<polygon fill="black" stroke="black" points="229.88,-434.14 239.36,-439.64 235.18,-434.69 239.49,-435.13 239.49,-435.13 239.49,-435.13 235.18,-434.69 240.29,-430.69 229.88,-434.14"/>
<text text-anchor="start" x="7" y="-445.2" font-family="Arial" font-size="10.00">FOREIGN KEY (user_id) REFERENCES users (id)</text>
</g>
<!-- items -->
<g id="node3" class="node">
<title>items</title>
<polygon fill="#efefef" stroke="none" points="413.13,-197.2 413.13,-232.8 590.62,-232.8 590.62,-197.2 413.13,-197.2"/>
<polygon fill="none" stroke="black" points="413.13,-197.2 413.13,-232.8 590.62,-232.8 590.62,-197.2 413.13,-197.2"/>
<text text-anchor="start" x="420.13" y="-210.6" font-family="Arial Bold" font-size="18.00">items</text>
<text text-anchor="start" x="459.13" y="-210.6" font-family="Arial" font-size="14.00">    </text>
<text text-anchor="start" x="490.24" y="-210.6" font-family="Arial" font-size="14.00" fill="#666666">[BASE TABLE]</text>
<polygon fill="none" stroke="black" points="413.13,-166.4 413.13,-197.2 590.62,-197.2 590.62,-166.4 413.13,-166.4"/>
<text text-anchor="start" x="420.13" y="-178.6" font-family="Arial" font-size="14.00">id </text>
<text text-anchor="start" x="434.92" y="-178.6" font-family="Arial" font-size="14.00" fill="#666666">[int]</text>
<polygon fill="none" stroke="black" points="413.13,-135.6 413.13,-166.4 590.62,-166.4 590.62,-135.6 413.13,-135.6"/>
<text text-anchor="start" x="420.13" y="-147.8" font-family="Arial" font-size="14.00">name </text>
<text text-anchor="start" x="459.04" y="-147.8" font-family="Arial" font-size="14.00" fill="#666666">[varchar(255)]</text>
<polygon fill="none" stroke="black" points="413.13,-104.8 413.13,-135.6 590.62,-135.6 590.62,-104.8 413.13,-104.8"/>
<text text-anchor="start" x="420.13" y="-117" font-family="Arial" font-size="14.00">description </text>
<text text-anchor="start" x="491.72" y="-117" font-family="Arial" font-size="14.00" fill="#666666">[text]</text>
<polygon fill="none" stroke="black" points="413.13,-74 413.13,-104.8 590.62,-104.8 590.62,-74 413.13,-74"/>
<text text-anchor="start" x="420.13" y="-86.2" font-family="Arial" font-size="14.00">price </text>
<text text-anchor="start" x="454.36" y="-86.2" font-family="Arial" font-size="14.00" fill="#666666">[decimal(10,2)]</text>
<polygon fill="none" stroke="black" points="413.13,-43.2 413.13,-74 590.62,-74 590.62,-43.2 413.13,-43.2"/>
<text text-anchor="start" x="420.13" y="-55.4" font-family="Arial" font-size="14.00">stock </text>
<text text-anchor="start" x="456.69" y="-55.4" font-family="Arial" font-size="14.00" fill="#666666">[int]</text>
</g>
<!-- current_cart&#45;&gt;items -->
<g id="edge2" class="edge">
<title>current_cart:item_id&#45;&gt;items:id</title>
<path fill="none" stroke="black" d="M477.86,-402.86C504.28,-393.61 484.17,-344.62 466.59,-312 452.99,-286.79 426.72,-301.21 413.13,-276 393.26,-239.14 370.26,-181.8 412.13,-181.8"/>
<polygon fill="black" stroke="black" points="477.81,-402.87 467.25,-399.9 472.53,-403.66 468.25,-404.3 468.25,-404.3 468.25,-404.3 472.53,-403.66 468.59,-408.8 477.81,-402.87"/>
<text text-anchor="start" x="474.59" y="-414.4" font-family="Arial" font-size="10.00">FOREIGN KEY (item_id) REFERENCES items (id)</text>
</g>
</g>
</svg>
