<?xml version="1.0" encoding="UTF-8" standalone="no"?>
<!DOCTYPE svg PUBLIC "-//W3C//DTD SVG 1.1//EN"
 "http://www.w3.org/Graphics/SVG/1.1/DTD/svg11.dtd">
<!-- Generated by graphviz version 12.1.2 (20240928.0832)
 -->
<!-- Title: items Pages: 1 -->
<svg width="666pt" height="602pt"
 viewBox="0.00 0.00 665.84 602.00" xmlns="http://www.w3.org/2000/svg" xmlns:xlink="http://www.w3.org/1999/xlink">
<g id="graph0" class="graph" transform="scale(1 1) rotate(0) translate(4 598)">
<title>items</title>
<polygon fill="white" stroke="none" points="-4,4 -4,-598 661.84,-598 661.84,4 -4,4"/>
<!-- items -->
<g id="node1" class="node">
<title>items</title>
<polygon fill="#efefef" stroke="none" points="236.17,-200.2 236.17,-235.8 413.66,-235.8 413.66,-200.2 236.17,-200.2"/>
<polygon fill="none" stroke="black" points="236.17,-200.2 236.17,-235.8 413.66,-235.8 413.66,-200.2 236.17,-200.2"/>
<text text-anchor="start" x="243.17" y="-213.6" font-family="Arial Bold" font-size="18.00">items</text>
<text text-anchor="start" x="282.17" y="-213.6" font-family="Arial" font-size="14.00">    </text>
<text text-anchor="start" x="313.29" y="-213.6" font-family="Arial" font-size="14.00" fill="#666666">[BASE TABLE]</text>
<polygon fill="none" stroke="black" points="236.17,-169.4 236.17,-200.2 413.66,-200.2 413.66,-169.4 236.17,-169.4"/>
<text text-anchor="start" x="243.17" y="-181.6" font-family="Arial" font-size="14.00">id </text>
<text text-anchor="start" x="257.96" y="-181.6" font-family="Arial" font-size="14.00" fill="#666666">[int]</text>
<polygon fill="none" stroke="black" points="236.17,-138.6 236.17,-169.4 413.66,-169.4 413.66,-138.6 236.17,-138.6"/>
<text text-anchor="start" x="243.17" y="-150.8" font-family="Arial" font-size="14.00">name </text>
<text text-anchor="start" x="282.08" y="-150.8" font-family="Arial" font-size="14.00" fill="#666666">[varchar(255)]</text>
<polygon fill="none" stroke="black" points="236.17,-107.8 236.17,-138.6 413.66,-138.6 413.66,-107.8 236.17,-107.8"/>
<text text-anchor="start" x="243.17" y="-120" font-family="Arial" font-size="14.00">description </text>
<text text-anchor="start" x="314.76" y="-120" font-family="Arial" font-size="14.00" fill="#666666">[text]</text>
<polygon fill="none" stroke="black" points="236.17,-77 236.17,-107.8 413.66,-107.8 413.66,-77 236.17,-77"/>
<text text-anchor="start" x="243.17" y="-89.2" font-family="Arial" font-size="14.00">price </text>
<text text-anchor="start" x="277.41" y="-89.2" font-family="Arial" font-size="14.00" fill="#666666">[decimal(10,2)]</text>
<polygon fill="none" stroke="black" points="236.17,-46.2 236.17,-77 413.66,-77 413.66,-46.2 236.17,-46.2"/>
<text text-anchor="start" x="243.17" y="-58.4" font-family="Arial" font-size="14.00">stock </text>
<text text-anchor="start" x="279.74" y="-58.4" font-family="Arial" font-size="14.00" fill="#666666">[int]</text>
<polygon fill="none" stroke="black" stroke-width="3" points="234.67,-44.7 234.67,-237.3 415.16,-237.3 415.16,-44.7 234.67,-44.7"/>
</g>
<!-- current_cart -->
<g id="node2" class="node">
<title>current_cart</title>
<polygon fill="#efefef" stroke="none" points="43.2,-499.8 43.2,-535.4 268.63,-535.4 268.63,-499.8 43.2,-499.8"/>
<polygon fill="none" stroke="black" points="43.2,-499.8 43.2,-535.4 268.63,-535.4 268.63,-499.8 43.2,-499.8"/>
<text text-anchor="start" x="50.2" y="-513.2" font-family="Arial Bold" font-size="18.00">current_cart</text>
<text text-anchor="start" x="137.14" y="-513.2" font-family="Arial" font-size="14.00">    </text>
<text text-anchor="start" x="168.26" y="-513.2" font-family="Arial" font-size="14.00" fill="#666666">[BASE TABLE]</text>
<polygon fill="none" stroke="black" points="43.2,-469 43.2,-499.8 268.63,-499.8 268.63,-469 43.2,-469"/>
<text text-anchor="start" x="50.2" y="-481.2" font-family="Arial" font-size="14.00">id </text>
<text text-anchor="start" x="64.99" y="-481.2" font-family="Arial" font-size="14.00" fill="#666666">[int]</text>
<polygon fill="none" stroke="black" points="43.2,-438.2 43.2,-469 268.63,-469 268.63,-438.2 43.2,-438.2"/>
<text text-anchor="start" x="50.2" y="-450.4" font-family="Arial" font-size="14.00">user_id </text>
<text text-anchor="start" x="100.01" y="-450.4" font-family="Arial" font-size="14.00" fill="#666666">[int]</text>
<polygon fill="none" stroke="black" points="43.2,-407.4 43.2,-438.2 268.63,-438.2 268.63,-407.4 43.2,-407.4"/>
<text text-anchor="start" x="50.2" y="-419.6" font-family="Arial" font-size="14.00">item_id </text>
<text text-anchor="start" x="99.22" y="-419.6" font-family="Arial" font-size="14.00" fill="#666666">[int]</text>
<polygon fill="none" stroke="black" points="43.2,-376.6 43.2,-407.4 268.63,-407.4 268.63,-376.6 43.2,-376.6"/>
<text text-anchor="start" x="50.2" y="-388.8" font-family="Arial" font-size="14.00">quantity </text>
<text text-anchor="start" x="103.12" y="-388.8" font-family="Arial" font-size="14.00" fill="#666666">[int]</text>
</g>
<!-- current_cart&#45;&gt;items -->
<g id="edge1" class="edge">
<title>current_cart:item_id&#45;&gt;items:id</title>
<path fill="none" stroke="black" d="M279.69,-421.28C303.57,-412.52 278.74,-367.64 268.63,-333.4 260.98,-307.49 243.81,-307.91 236.17,-282 223.95,-240.56 191.97,-184.8 235.17,-184.8"/>
<polygon fill="black" stroke="black" points="279.85,-421.26 269.29,-418.3 274.57,-422.05 270.29,-422.7 270.29,-422.7 270.29,-422.7 274.57,-422.05 270.63,-427.2 279.85,-421.26"/>
<text text-anchor="start" x="276.63" y="-432.8" font-family="Arial" font-size="10.00">FOREIGN KEY (item_id) REFERENCES items (id)</text>
</g>
<!-- ordered_items -->
<g id="node3" class="node">
<title>ordered_items</title>
<polygon fill="#efefef" stroke="none" points="373.19,-515.2 373.19,-550.8 614.64,-550.8 614.64,-515.2 373.19,-515.2"/>
<polygon fill="none" stroke="black" points="373.19,-515.2 373.19,-550.8 614.64,-550.8 614.64,-515.2 373.19,-515.2"/>
<text text-anchor="start" x="380.19" y="-528.6" font-family="Arial Bold" font-size="18.00">ordered_items</text>
<text text-anchor="start" x="483.15" y="-528.6" font-family="Arial" font-size="14.00">    </text>
<text text-anchor="start" x="514.27" y="-528.6" font-family="Arial" font-size="14.00" fill="#666666">[BASE TABLE]</text>
<polygon fill="none" stroke="black" points="373.19,-484.4 373.19,-515.2 614.64,-515.2 614.64,-484.4 373.19,-484.4"/>
<text text-anchor="start" x="380.19" y="-496.6" font-family="Arial" font-size="14.00">id </text>
<text text-anchor="start" x="394.97" y="-496.6" font-family="Arial" font-size="14.00" fill="#666666">[int]</text>
<polygon fill="none" stroke="black" points="373.19,-453.6 373.19,-484.4 614.64,-484.4 614.64,-453.6 373.19,-453.6"/>
<text text-anchor="start" x="380.19" y="-465.8" font-family="Arial" font-size="14.00">order_id </text>
<text text-anchor="start" x="435.44" y="-465.8" font-family="Arial" font-size="14.00" fill="#666666">[int]</text>
<polygon fill="none" stroke="black" points="373.19,-422.8 373.19,-453.6 614.64,-453.6 614.64,-422.8 373.19,-422.8"/>
<text text-anchor="start" x="380.19" y="-435" font-family="Arial" font-size="14.00">item_id </text>
<text text-anchor="start" x="429.21" y="-435" font-family="Arial" font-size="14.00" fill="#666666">[int]</text>
<polygon fill="none" stroke="black" points="373.19,-392 373.19,-422.8 614.64,-422.8 614.64,-392 373.19,-392"/>
<text text-anchor="start" x="380.19" y="-404.2" font-family="Arial" font-size="14.00">quantity </text>
<text text-anchor="start" x="433.11" y="-404.2" font-family="Arial" font-size="14.00" fill="#666666">[int]</text>
<polygon fill="none" stroke="black" points="373.19,-361.2 373.19,-392 614.64,-392 614.64,-361.2 373.19,-361.2"/>
<text text-anchor="start" x="380.19" y="-373.4" font-family="Arial" font-size="14.00">price_at_purchase </text>
<text text-anchor="start" x="499.26" y="-373.4" font-family="Arial" font-size="14.00" fill="#666666">[decimal(10,2)]</text>
</g>
<!-- ordered_items&#45;&gt;items -->
<g id="edge2" class="edge">
<title>ordered_items:item_id&#45;&gt;items:id</title>
<path fill="none" stroke="black" d="M362.16,-437.17C323.26,-428.25 352.66,-363.23 373.19,-318 383.14,-296.08 403.69,-303.91 413.66,-282 431.55,-242.68 457.86,-184.8 414.66,-184.8"/>
<polygon fill="black" stroke="black" points="361.91,-437.15 371.4,-442.64 367.21,-437.69 371.52,-438.13 371.52,-438.13 371.52,-438.13 367.21,-437.69 372.32,-433.69 361.91,-437.15"/>
<text text-anchor="start" x="379.19" y="-448.2" font-family="Arial" font-size="10.00">FOREIGN KEY (item_id) REFERENCES items (id)</text>
</g>
</g>
</svg>
