<?xml version="1.0" encoding="UTF-8" standalone="no"?>
<!DOCTYPE svg PUBLIC "-//W3C//DTD SVG 1.1//EN"
 "http://www.w3.org/Graphics/SVG/1.1/DTD/svg11.dtd">
<!-- Generated by graphviz version 12.1.2 (20240928.0832)
 -->
<!-- Title: ordered_items Pages: 1 -->
<svg width="738pt" height="602pt"
 viewBox="0.00 0.00 738.43 602.00" xmlns="http://www.w3.org/2000/svg" xmlns:xlink="http://www.w3.org/1999/xlink">
<g id="graph0" class="graph" transform="scale(1 1) rotate(0) translate(4 598)">
<title>ordered_items</title>
<polygon fill="white" stroke="none" points="-4,4 -4,-598 734.43,-598 734.43,4 -4,4"/>
<!-- ordered_items -->
<g id="node1" class="node">
<title>ordered_items</title>
<polygon fill="#efefef" stroke="none" points="248.94,-512.2 248.94,-547.8 490.39,-547.8 490.39,-512.2 248.94,-512.2"/>
<polygon fill="none" stroke="black" points="248.94,-512.2 248.94,-547.8 490.39,-547.8 490.39,-512.2 248.94,-512.2"/>
<text text-anchor="start" x="255.94" y="-525.6" font-family="Arial Bold" font-size="18.00">ordered_items</text>
<text text-anchor="start" x="358.9" y="-525.6" font-family="Arial" font-size="14.00">    </text>
<text text-anchor="start" x="390.02" y="-525.6" font-family="Arial" font-size="14.00" fill="#666666">[BASE TABLE]</text>
<polygon fill="none" stroke="black" points="248.94,-481.4 248.94,-512.2 490.39,-512.2 490.39,-481.4 248.94,-481.4"/>
<text text-anchor="start" x="255.94" y="-493.6" font-family="Arial" font-size="14.00">id </text>
<text text-anchor="start" x="270.73" y="-493.6" font-family="Arial" font-size="14.00" fill="#666666">[int]</text>
<polygon fill="none" stroke="black" points="248.94,-450.6 248.94,-481.4 490.39,-481.4 490.39,-450.6 248.94,-450.6"/>
<text text-anchor="start" x="255.94" y="-462.8" font-family="Arial" font-size="14.00">order_id </text>
<text text-anchor="start" x="311.2" y="-462.8" font-family="Arial" font-size="14.00" fill="#666666">[int]</text>
<polygon fill="none" stroke="black" points="248.94,-419.8 248.94,-450.6 490.39,-450.6 490.39,-419.8 248.94,-419.8"/>
<text text-anchor="start" x="255.94" y="-432" font-family="Arial" font-size="14.00">item_id </text>
<text text-anchor="start" x="304.96" y="-432" font-family="Arial" font-size="14.00" fill="#666666">[int]</text>
<polygon fill="none" stroke="black" points="248.94,-389 248.94,-419.8 490.39,-419.8 490.39,-389 248.94,-389"/>
<text text-anchor="start" x="255.94" y="-401.2" font-family="Arial" font-size="14.00">quantity </text>
<text text-anchor="start" x="308.86" y="-401.2" font-family="Arial" font-size="14.00" fill="#666666">[int]</text>
<polygon fill="none" stroke="black" points="248.94,-358.2 248.94,-389 490.39,-389 490.39,-358.2 248.94,-358.2"/>
<text text-anchor="start" x="255.94" y="-370.4" font-family="Arial" font-size="14.00">price_at_purchase </text>
<text text-anchor="start" x="375.02" y="-370.4" font-family="Arial" font-size="14.00" fill="#666666">[decimal(10,2)]</text>
<polygon fill="none" stroke="black" stroke-width="3" points="247.44,-356.7 247.44,-549.3 491.89,-549.3 491.89,-356.7 247.44,-356.7"/>
</g>
<!-- orders -->
<g id="node2" class="node">
<title>orders</title>
<polygon fill="#efefef" stroke="none" points="129.95,-181.8 129.95,-217.4 321.38,-217.4 321.38,-181.8 129.95,-181.8"/>
<polygon fill="none" stroke="black" points="129.95,-181.8 129.95,-217.4 321.38,-217.4 321.38,-181.8 129.95,-181.8"/>
<text text-anchor="start" x="140.93" y="-195.2" font-family="Arial Bold" font-size="18.00">orders</text>
<text text-anchor="start" x="185.91" y="-195.2" font-family="Arial" font-size="14.00">    </text>
<text text-anchor="start" x="217.03" y="-195.2" font-family="Arial" font-size="14.00" fill="#666666">[BASE TABLE]</text>
<polygon fill="none" stroke="black" points="129.95,-151 129.95,-181.8 321.38,-181.8 321.38,-151 129.95,-151"/>
<text text-anchor="start" x="136.95" y="-163.2" font-family="Arial" font-size="14.00">id </text>
<text text-anchor="start" x="151.74" y="-163.2" font-family="Arial" font-size="14.00" fill="#666666">[int]</text>
<polygon fill="none" stroke="black" points="129.95,-120.2 129.95,-151 321.38,-151 321.38,-120.2 129.95,-120.2"/>
<text text-anchor="start" x="136.95" y="-132.4" font-family="Arial" font-size="14.00">user_id </text>
<text text-anchor="start" x="186.76" y="-132.4" font-family="Arial" font-size="14.00" fill="#666666">[int]</text>
<polygon fill="none" stroke="black" points="129.95,-89.4 129.95,-120.2 321.38,-120.2 321.38,-89.4 129.95,-89.4"/>
<text text-anchor="start" x="136.95" y="-101.6" font-family="Arial" font-size="14.00">order_date </text>
<text text-anchor="start" x="208.56" y="-101.6" font-family="Arial" font-size="14.00" fill="#666666">[timestamp]</text>
<polygon fill="none" stroke="black" points="129.95,-58.6 129.95,-89.4 321.38,-89.4 321.38,-58.6 129.95,-58.6"/>
<text text-anchor="start" x="136.95" y="-70.8" font-family="Arial" font-size="14.00">total_amount </text>
<text text-anchor="start" x="221.79" y="-70.8" font-family="Arial" font-size="14.00" fill="#666666">[decimal(10,2)]</text>
</g>
<!-- ordered_items&#45;&gt;orders -->
<g id="edge1" class="edge">
<title>ordered_items:order_id&#45;&gt;orders:id</title>
<path fill="none" stroke="black" d="M237.65,-465.18C183.61,-455.89 219.06,-369.39 248.94,-312 267.17,-276.99 303.08,-295.58 321.38,-260.6 340.79,-223.5 364.25,-166.4 322.38,-166.4"/>
<polygon fill="black" stroke="black" points="237.64,-465.18 247.25,-470.46 242.96,-465.6 247.27,-465.95 247.27,-465.95 247.27,-465.95 242.96,-465.6 247.96,-461.49 237.64,-465.18"/>
<text text-anchor="start" x="7" y="-476" font-family="Arial" font-size="10.00">FOREIGN KEY (order_id) REFERENCES orders (id)</text>
</g>
<!-- items -->
<g id="node3" class="node">
<title>items</title>
<polygon fill="#efefef" stroke="none" points="425.92,-197.2 425.92,-232.8 603.41,-232.8 603.41,-197.2 425.92,-197.2"/>
<polygon fill="none" stroke="black" points="425.92,-197.2 425.92,-232.8 603.41,-232.8 603.41,-197.2 425.92,-197.2"/>
<text text-anchor="start" x="432.92" y="-210.6" font-family="Arial Bold" font-size="18.00">items</text>
<text text-anchor="start" x="471.92" y="-210.6" font-family="Arial" font-size="14.00">    </text>
<text text-anchor="start" x="503.04" y="-210.6" font-family="Arial" font-size="14.00" fill="#666666">[BASE TABLE]</text>
<polygon fill="none" stroke="black" points="425.92,-166.4 425.92,-197.2 603.41,-197.2 603.41,-166.4 425.92,-166.4"/>
<text text-anchor="start" x="432.92" y="-178.6" font-family="Arial" font-size="14.00">id </text>
<text text-anchor="start" x="447.71" y="-178.6" font-family="Arial" font-size="14.00" fill="#666666">[int]</text>
<polygon fill="none" stroke="black" points="425.92,-135.6 425.92,-166.4 603.41,-166.4 603.41,-135.6 425.92,-135.6"/>
<text text-anchor="start" x="432.92" y="-147.8" font-family="Arial" font-size="14.00">name </text>
<text text-anchor="start" x="471.83" y="-147.8" font-family="Arial" font-size="14.00" fill="#666666">[varchar(255)]</text>
<polygon fill="none" stroke="black" points="425.92,-104.8 425.92,-135.6 603.41,-135.6 603.41,-104.8 425.92,-104.8"/>
<text text-anchor="start" x="432.92" y="-117" font-family="Arial" font-size="14.00">description </text>
<text text-anchor="start" x="504.52" y="-117" font-family="Arial" font-size="14.00" fill="#666666">[text]</text>
<polygon fill="none" stroke="black" points="425.92,-74 425.92,-104.8 603.41,-104.8 603.41,-74 425.92,-74"/>
<text text-anchor="start" x="432.92" y="-86.2" font-family="Arial" font-size="14.00">price </text>
<text text-anchor="start" x="467.16" y="-86.2" font-family="Arial" font-size="14.00" fill="#666666">[decimal(10,2)]</text>
<polygon fill="none" stroke="black" points="425.92,-43.2 425.92,-74 603.41,-74 603.41,-43.2 425.92,-43.2"/>
<text text-anchor="start" x="432.92" y="-55.4" font-family="Arial" font-size="14.00">stock </text>
<text text-anchor="start" x="469.49" y="-55.4" font-family="Arial" font-size="14.00" fill="#666666">[int]</text>
</g>
<!-- ordered_items&#45;&gt;items -->
<g id="edge2" class="edge">
<title>ordered_items:item_id&#45;&gt;items:id</title>
<path fill="none" stroke="black" d="M501.75,-434.11C542.23,-424.64 516.34,-355.8 490.39,-312 473.67,-283.76 442.69,-304.21 425.92,-276 404.54,-240 383.05,-181.8 424.92,-181.8"/>
<polygon fill="black" stroke="black" points="501.67,-434.12 491.25,-430.69 496.37,-434.68 492.06,-435.13 492.06,-435.13 492.06,-435.13 496.37,-434.68 492.2,-439.64 501.67,-434.12"/>
<text text-anchor="start" x="498.39" y="-445.2" font-family="Arial" font-size="10.00">FOREIGN KEY (item_id) REFERENCES items (id)</text>
</g>
</g>
</svg>
