<?xml version="1.0" encoding="UTF-8" standalone="no"?>
<!DOCTYPE svg PUBLIC "-//W3C//DTD SVG 1.1//EN"
 "http://www.w3.org/Graphics/SVG/1.1/DTD/svg11.dtd">
<!-- Generated by graphviz version 12.1.2 (20240928.0832)
 -->
<!-- Title: orders Pages: 1 -->
<svg width="542pt" height="852pt"
 viewBox="0.00 0.00 541.59 852.40" xmlns="http://www.w3.org/2000/svg" xmlns:xlink="http://www.w3.org/1999/xlink">
<g id="graph0" class="graph" transform="scale(1 1) rotate(0) translate(4 848.4)">
<title>orders</title>
<polygon fill="white" stroke="none" points="-4,4 -4,-848.4 537.59,-848.4 537.59,4 -4,4"/>
<!-- orders -->
<g id="node1" class="node">
<title>orders</title>
<polygon fill="#efefef" stroke="none" points="68.21,-450.6 68.21,-486.2 259.64,-486.2 259.64,-450.6 68.21,-450.6"/>
<polygon fill="none" stroke="black" points="68.21,-450.6 68.21,-486.2 259.64,-486.2 259.64,-450.6 68.21,-450.6"/>
<text text-anchor="start" x="79.19" y="-464" font-family="Arial Bold" font-size="18.00">orders</text>
<text text-anchor="start" x="124.17" y="-464" font-family="Arial" font-size="14.00">    </text>
<text text-anchor="start" x="155.29" y="-464" font-family="Arial" font-size="14.00" fill="#666666">[BASE TABLE]</text>
<polygon fill="none" stroke="black" points="68.21,-419.8 68.21,-450.6 259.64,-450.6 259.64,-419.8 68.21,-419.8"/>
<text text-anchor="start" x="75.21" y="-432" font-family="Arial" font-size="14.00">id </text>
<text text-anchor="start" x="90" y="-432" font-family="Arial" font-size="14.00" fill="#666666">[int]</text>
<polygon fill="none" stroke="black" points="68.21,-389 68.21,-419.8 259.64,-419.8 259.64,-389 68.21,-389"/>
<text text-anchor="start" x="75.21" y="-401.2" font-family="Arial" font-size="14.00">user_id </text>
<text text-anchor="start" x="125.02" y="-401.2" font-family="Arial" font-size="14.00" fill="#666666">[int]</text>
<polygon fill="none" stroke="black" points="68.21,-358.2 68.21,-389 259.64,-389 259.64,-358.2 68.21,-358.2"/>
<text text-anchor="start" x="75.21" y="-370.4" font-family="Arial" font-size="14.00">order_date </text>
<text text-anchor="start" x="146.82" y="-370.4" font-family="Arial" font-size="14.00" fill="#666666">[timestamp]</text>
<polygon fill="none" stroke="black" points="68.21,-327.4 68.21,-358.2 259.64,-358.2 259.64,-327.4 68.21,-327.4"/>
<text text-anchor="start" x="75.21" y="-339.6" font-family="Arial" font-size="14.00">total_amount </text>
<text text-anchor="start" x="160.05" y="-339.6" font-family="Arial" font-size="14.00" fill="#666666">[decimal(10,2)]</text>
<polygon fill="none" stroke="black" stroke-width="3" points="66.71,-325.9 66.71,-487.7 261.14,-487.7 261.14,-325.9 66.71,-325.9"/>
</g>
<!-- users -->
<g id="node3" class="node">
<title>users</title>
<polygon fill="#efefef" stroke="none" points="62.38,-166.4 62.38,-202 265.47,-202 265.47,-166.4 62.38,-166.4"/>
<polygon fill="none" stroke="black" points="62.38,-166.4 62.38,-202 265.47,-202 265.47,-166.4 62.38,-166.4"/>
<text text-anchor="start" x="83.19" y="-179.8" font-family="Arial Bold" font-size="18.00">users</text>
<text text-anchor="start" x="120.18" y="-179.8" font-family="Arial" font-size="14.00">    </text>
<text text-anchor="start" x="151.3" y="-179.8" font-family="Arial" font-size="14.00" fill="#666666">[BASE TABLE]</text>
<polygon fill="none" stroke="black" points="62.38,-135.6 62.38,-166.4 265.47,-166.4 265.47,-135.6 62.38,-135.6"/>
<text text-anchor="start" x="69.38" y="-147.8" font-family="Arial" font-size="14.00">id </text>
<text text-anchor="start" x="84.16" y="-147.8" font-family="Arial" font-size="14.00" fill="#666666">[int]</text>
<polygon fill="none" stroke="black" points="62.38,-104.8 62.38,-135.6 265.47,-135.6 265.47,-104.8 62.38,-104.8"/>
<text text-anchor="start" x="69.38" y="-117" font-family="Arial" font-size="14.00">username </text>
<text text-anchor="start" x="135.52" y="-117" font-family="Arial" font-size="14.00" fill="#666666">[varchar(255)]</text>
<polygon fill="none" stroke="black" points="62.38,-74 62.38,-104.8 265.47,-104.8 265.47,-74 62.38,-74"/>
<text text-anchor="start" x="69.38" y="-86.2" font-family="Arial" font-size="14.00">email </text>
<text text-anchor="start" x="106.72" y="-86.2" font-family="Arial" font-size="14.00" fill="#666666">[varchar(255)]</text>
<polygon fill="none" stroke="black" points="62.38,-43.2 62.38,-74 265.47,-74 265.47,-43.2 62.38,-43.2"/>
<text text-anchor="start" x="69.38" y="-55.4" font-family="Arial" font-size="14.00">password_hash </text>
<text text-anchor="start" x="171.33" y="-55.4" font-family="Arial" font-size="14.00" fill="#666666">[varchar(255)]</text>
</g>
<!-- orders&#45;&gt;users -->
<g id="edge2" class="edge">
<title>orders:user_id&#45;&gt;users:id</title>
<path fill="none" stroke="black" d="M270.89,-403.67C373.54,-388.81 375.61,-151 266.47,-151"/>
<polygon fill="black" stroke="black" points="270.95,-403.67 260.66,-399.89 265.63,-404.05 261.31,-404.35 261.31,-404.35 261.31,-404.35 265.63,-404.05 261.29,-408.87 270.95,-403.67"/>
<text text-anchor="start" x="267.64" y="-414.4" font-family="Arial" font-size="10.00">FOREIGN KEY (user_id) REFERENCES users (id)</text>
</g>
<!-- ordered_items -->
<g id="node2" class="node">
<title>ordered_items</title>
<polygon fill="#efefef" stroke="none" points="43.2,-765.6 43.2,-801.2 284.65,-801.2 284.65,-765.6 43.2,-765.6"/>
<polygon fill="none" stroke="black" points="43.2,-765.6 43.2,-801.2 284.65,-801.2 284.65,-765.6 43.2,-765.6"/>
<text text-anchor="start" x="50.2" y="-779" font-family="Arial Bold" font-size="18.00">ordered_items</text>
<text text-anchor="start" x="153.16" y="-779" font-family="Arial" font-size="14.00">    </text>
<text text-anchor="start" x="184.28" y="-779" font-family="Arial" font-size="14.00" fill="#666666">[BASE TABLE]</text>
<polygon fill="none" stroke="black" points="43.2,-734.8 43.2,-765.6 284.65,-765.6 284.65,-734.8 43.2,-734.8"/>
<text text-anchor="start" x="50.2" y="-747" font-family="Arial" font-size="14.00">id </text>
<text text-anchor="start" x="64.99" y="-747" font-family="Arial" font-size="14.00" fill="#666666">[int]</text>
<polygon fill="none" stroke="black" points="43.2,-704 43.2,-734.8 284.65,-734.8 284.65,-704 43.2,-704"/>
<text text-anchor="start" x="50.2" y="-716.2" font-family="Arial" font-size="14.00">order_id </text>
<text text-anchor="start" x="105.45" y="-716.2" font-family="Arial" font-size="14.00" fill="#666666">[int]</text>
<polygon fill="none" stroke="black" points="43.2,-673.2 43.2,-704 284.65,-704 284.65,-673.2 43.2,-673.2"/>
<text text-anchor="start" x="50.2" y="-685.4" font-family="Arial" font-size="14.00">item_id </text>
<text text-anchor="start" x="99.22" y="-685.4" font-family="Arial" font-size="14.00" fill="#666666">[int]</text>
<polygon fill="none" stroke="black" points="43.2,-642.4 43.2,-673.2 284.65,-673.2 284.65,-642.4 43.2,-642.4"/>
<text text-anchor="start" x="50.2" y="-654.6" font-family="Arial" font-size="14.00">quantity </text>
<text text-anchor="start" x="103.12" y="-654.6" font-family="Arial" font-size="14.00" fill="#666666">[int]</text>
<polygon fill="none" stroke="black" points="43.2,-611.6 43.2,-642.4 284.65,-642.4 284.65,-611.6 43.2,-611.6"/>
<text text-anchor="start" x="50.2" y="-623.8" font-family="Arial" font-size="14.00">price_at_purchase </text>
<text text-anchor="start" x="169.28" y="-623.8" font-family="Arial" font-size="14.00" fill="#666666">[decimal(10,2)]</text>
</g>
<!-- ordered_items&#45;&gt;orders -->
<g id="edge1" class="edge">
<title>ordered_items:order_id&#45;&gt;orders:id</title>
<path fill="none" stroke="black" d="M296.06,-718.73C410.95,-703.53 383.85,-435.2 260.64,-435.2"/>
<polygon fill="black" stroke="black" points="295.97,-718.74 285.7,-714.89 290.64,-719.08 286.32,-719.36 286.32,-719.36 286.32,-719.36 290.64,-719.08 286.28,-723.87 295.97,-718.74"/>
<text text-anchor="start" x="292.65" y="-729.4" font-family="Arial" font-size="10.00">FOREIGN KEY (order_id) REFERENCES orders (id)</text>
</g>
</g>
</svg>
