<?xml version="1.0" encoding="UTF-8" standalone="no"?>
<!DOCTYPE svg PUBLIC "-//W3C//DTD SVG 1.1//EN"
 "http://www.w3.org/Graphics/SVG/1.1/DTD/svg11.dtd">
<!-- Generated by graphviz version 12.1.2 (20240928.0832)
 -->
<!-- Title: ecsite&#45;sample&#45;shops Pages: 1 -->
<svg width="1098pt" height="877pt"
 viewBox="0.00 0.00 1097.54 877.20" xmlns="http://www.w3.org/2000/svg" xmlns:xlink="http://www.w3.org/1999/xlink">
<g id="graph0" class="graph" transform="scale(1 1) rotate(0) translate(4 873.2)">
<title>ecsite&#45;sample&#45;shops</title>
<polygon fill="white" stroke="none" points="-4,4 -4,-873.2 1093.54,-873.2 1093.54,4 -4,4"/>
<!-- current_cart -->
<g id="node1" class="node">
<title>current_cart</title>
<polygon fill="#efefef" stroke="none" points="241.16,-775 241.16,-810.6 466.59,-810.6 466.59,-775 241.16,-775"/>
<polygon fill="none" stroke="black" points="241.16,-775 241.16,-810.6 466.59,-810.6 466.59,-775 241.16,-775"/>
<text text-anchor="start" x="248.16" y="-788.4" font-family="Arial Bold" font-size="18.00">current_cart</text>
<text text-anchor="start" x="335.1" y="-788.4" font-family="Arial" font-size="14.00">    </text>
<text text-anchor="start" x="366.22" y="-788.4" font-family="Arial" font-size="14.00" fill="#666666">[BASE TABLE]</text>
<polygon fill="none" stroke="black" points="241.16,-744.2 241.16,-775 466.59,-775 466.59,-744.2 241.16,-744.2"/>
<text text-anchor="start" x="248.16" y="-756.4" font-family="Arial" font-size="14.00">id </text>
<text text-anchor="start" x="262.94" y="-756.4" font-family="Arial" font-size="14.00" fill="#666666">[int]</text>
<polygon fill="none" stroke="black" points="241.16,-713.4 241.16,-744.2 466.59,-744.2 466.59,-713.4 241.16,-713.4"/>
<text text-anchor="start" x="248.16" y="-725.6" font-family="Arial" font-size="14.00">user_id </text>
<text text-anchor="start" x="297.96" y="-725.6" font-family="Arial" font-size="14.00" fill="#666666">[int]</text>
<polygon fill="none" stroke="black" points="241.16,-682.6 241.16,-713.4 466.59,-713.4 466.59,-682.6 241.16,-682.6"/>
<text text-anchor="start" x="248.16" y="-694.8" font-family="Arial" font-size="14.00">item_id </text>
<text text-anchor="start" x="297.18" y="-694.8" font-family="Arial" font-size="14.00" fill="#666666">[int]</text>
<polygon fill="none" stroke="black" points="241.16,-651.8 241.16,-682.6 466.59,-682.6 466.59,-651.8 241.16,-651.8"/>
<text text-anchor="start" x="248.16" y="-664" font-family="Arial" font-size="14.00">quantity </text>
<text text-anchor="start" x="301.08" y="-664" font-family="Arial" font-size="14.00" fill="#666666">[int]</text>
</g>
<!-- items -->
<g id="node2" class="node">
<title>items</title>
<polygon fill="#efefef" stroke="none" points="370.13,-478.4 370.13,-514 547.62,-514 547.62,-478.4 370.13,-478.4"/>
<polygon fill="none" stroke="black" points="370.13,-478.4 370.13,-514 547.62,-514 547.62,-478.4 370.13,-478.4"/>
<text text-anchor="start" x="377.13" y="-491.8" font-family="Arial Bold" font-size="18.00">items</text>
<text text-anchor="start" x="416.13" y="-491.8" font-family="Arial" font-size="14.00">    </text>
<text text-anchor="start" x="447.24" y="-491.8" font-family="Arial" font-size="14.00" fill="#666666">[BASE TABLE]</text>
<polygon fill="none" stroke="black" points="370.13,-447.6 370.13,-478.4 547.62,-478.4 547.62,-447.6 370.13,-447.6"/>
<text text-anchor="start" x="377.13" y="-459.8" font-family="Arial" font-size="14.00">id </text>
<text text-anchor="start" x="391.92" y="-459.8" font-family="Arial" font-size="14.00" fill="#666666">[int]</text>
<polygon fill="none" stroke="black" points="370.13,-416.8 370.13,-447.6 547.62,-447.6 547.62,-416.8 370.13,-416.8"/>
<text text-anchor="start" x="377.13" y="-429" font-family="Arial" font-size="14.00">name </text>
<text text-anchor="start" x="416.04" y="-429" font-family="Arial" font-size="14.00" fill="#666666">[varchar(255)]</text>
<polygon fill="none" stroke="black" points="370.13,-386 370.13,-416.8 547.62,-416.8 547.62,-386 370.13,-386"/>
<text text-anchor="start" x="377.13" y="-398.2" font-family="Arial" font-size="14.00">description </text>
<text text-anchor="start" x="448.72" y="-398.2" font-family="Arial" font-size="14.00" fill="#666666">[text]</text>
<polygon fill="none" stroke="black" points="370.13,-355.2 370.13,-386 547.62,-386 547.62,-355.2 370.13,-355.2"/>
<text text-anchor="start" x="377.13" y="-367.4" font-family="Arial" font-size="14.00">price </text>
<text text-anchor="start" x="411.36" y="-367.4" font-family="Arial" font-size="14.00" fill="#666666">[decimal(10,2)]</text>
<polygon fill="none" stroke="black" points="370.13,-324.4 370.13,-355.2 547.62,-355.2 547.62,-324.4 370.13,-324.4"/>
<text text-anchor="start" x="377.13" y="-336.6" font-family="Arial" font-size="14.00">stock </text>
<text text-anchor="start" x="413.69" y="-336.6" font-family="Arial" font-size="14.00" fill="#666666">[int]</text>
</g>
<!-- current_cart&#45;&gt;items -->
<g id="edge2" class="edge">
<title>current_cart:item_id&#45;&gt;items:id</title>
<path fill="none" stroke="black" d="M477.57,-696.49C503.39,-687.38 485.21,-639.24 466.59,-608.6 441.36,-567.09 395.35,-598.72 370.13,-557.2 348.39,-521.42 327.26,-463 369.13,-463"/>
<polygon fill="black" stroke="black" points="477.81,-696.45 467.24,-693.5 472.53,-697.25 468.25,-697.9 468.25,-697.9 468.25,-697.9 472.53,-697.25 468.59,-702.4 477.81,-696.45"/>
<text text-anchor="start" x="414.83" y="-682" font-family="Arial" font-size="10.00">FOREIGN KEY (item_id) REFERENCES items (id)</text>
</g>
<!-- users -->
<g id="node5" class="node">
<title>users</title>
<polygon fill="#efefef" stroke="none" points="421.32,-166.4 421.32,-202 624.42,-202 624.42,-166.4 421.32,-166.4"/>
<polygon fill="none" stroke="black" points="421.32,-166.4 421.32,-202 624.42,-202 624.42,-166.4 421.32,-166.4"/>
<text text-anchor="start" x="442.13" y="-179.8" font-family="Arial Bold" font-size="18.00">users</text>
<text text-anchor="start" x="479.12" y="-179.8" font-family="Arial" font-size="14.00">    </text>
<text text-anchor="start" x="510.24" y="-179.8" font-family="Arial" font-size="14.00" fill="#666666">[BASE TABLE]</text>
<polygon fill="none" stroke="black" points="421.32,-135.6 421.32,-166.4 624.42,-166.4 624.42,-135.6 421.32,-135.6"/>
<text text-anchor="start" x="428.32" y="-147.8" font-family="Arial" font-size="14.00">id </text>
<text text-anchor="start" x="443.11" y="-147.8" font-family="Arial" font-size="14.00" fill="#666666">[int]</text>
<polygon fill="none" stroke="black" points="421.32,-104.8 421.32,-135.6 624.42,-135.6 624.42,-104.8 421.32,-104.8"/>
<text text-anchor="start" x="428.32" y="-117" font-family="Arial" font-size="14.00">username </text>
<text text-anchor="start" x="494.47" y="-117" font-family="Arial" font-size="14.00" fill="#666666">[varchar(255)]</text>
<polygon fill="none" stroke="black" points="421.32,-74 421.32,-104.8 624.42,-104.8 624.42,-74 421.32,-74"/>
<text text-anchor="start" x="428.32" y="-86.2" font-family="Arial" font-size="14.00">email </text>
<text text-anchor="start" x="465.67" y="-86.2" font-family="Arial" font-size="14.00" fill="#666666">[varchar(255)]</text>
<polygon fill="none" stroke="black" points="421.32,-43.2 421.32,-74 624.42,-74 624.42,-43.2 421.32,-43.2"/>
<text text-anchor="start" x="428.32" y="-55.4" font-family="Arial" font-size="14.00">password_hash </text>
<text text-anchor="start" x="530.28" y="-55.4" font-family="Arial" font-size="14.00" fill="#666666">[varchar(255)]</text>
</g>
<!-- current_cart&#45;&gt;users -->
<g id="edge1" class="edge">
<title>current_cart:user_id&#45;&gt;users:id</title>
<path fill="none" stroke="black" d="M229.82,-727.53C115.48,-697.63 289.51,-151 420.32,-151"/>
<polygon fill="black" stroke="black" points="229.9,-727.54 239.28,-733.23 235.19,-728.19 239.49,-728.72 239.49,-728.72 239.49,-728.72 235.19,-728.19 240.38,-724.29 229.9,-727.54"/>
<text text-anchor="start" x="7" y="-738.8" font-family="Arial" font-size="10.00">FOREIGN KEY (user_id) REFERENCES users (id)</text>
</g>
<!-- ordered_items -->
<g id="node3" class="node">
<title>ordered_items</title>
<polygon fill="#efefef" stroke="none" points="599.15,-790.4 599.15,-826 840.6,-826 840.6,-790.4 599.15,-790.4"/>
<polygon fill="none" stroke="black" points="599.15,-790.4 599.15,-826 840.6,-826 840.6,-790.4 599.15,-790.4"/>
<text text-anchor="start" x="606.15" y="-803.8" font-family="Arial Bold" font-size="18.00">ordered_items</text>
<text text-anchor="start" x="709.11" y="-803.8" font-family="Arial" font-size="14.00">    </text>
<text text-anchor="start" x="740.23" y="-803.8" font-family="Arial" font-size="14.00" fill="#666666">[BASE TABLE]</text>
<polygon fill="none" stroke="black" points="599.15,-759.6 599.15,-790.4 840.6,-790.4 840.6,-759.6 599.15,-759.6"/>
<text text-anchor="start" x="606.15" y="-771.8" font-family="Arial" font-size="14.00">id </text>
<text text-anchor="start" x="620.93" y="-771.8" font-family="Arial" font-size="14.00" fill="#666666">[int]</text>
<polygon fill="none" stroke="black" points="599.15,-728.8 599.15,-759.6 840.6,-759.6 840.6,-728.8 599.15,-728.8"/>
<text text-anchor="start" x="606.15" y="-741" font-family="Arial" font-size="14.00">order_id </text>
<text text-anchor="start" x="661.4" y="-741" font-family="Arial" font-size="14.00" fill="#666666">[int]</text>
<polygon fill="none" stroke="black" points="599.15,-698 599.15,-728.8 840.6,-728.8 840.6,-698 599.15,-698"/>
<text text-anchor="start" x="606.15" y="-710.2" font-family="Arial" font-size="14.00">item_id </text>
<text text-anchor="start" x="655.17" y="-710.2" font-family="Arial" font-size="14.00" fill="#666666">[int]</text>
<polygon fill="none" stroke="black" points="599.15,-667.2 599.15,-698 840.6,-698 840.6,-667.2 599.15,-667.2"/>
<text text-anchor="start" x="606.15" y="-679.4" font-family="Arial" font-size="14.00">quantity </text>
<text text-anchor="start" x="659.07" y="-679.4" font-family="Arial" font-size="14.00" fill="#666666">[int]</text>
<polygon fill="none" stroke="black" points="599.15,-636.4 599.15,-667.2 840.6,-667.2 840.6,-636.4 599.15,-636.4"/>
<text text-anchor="start" x="606.15" y="-648.6" font-family="Arial" font-size="14.00">price_at_purchase </text>
<text text-anchor="start" x="725.22" y="-648.6" font-family="Arial" font-size="14.00" fill="#666666">[decimal(10,2)]</text>
</g>
<!-- ordered_items&#45;&gt;items -->
<g id="edge4" class="edge">
<title>ordered_items:item_id&#45;&gt;items:id</title>
<path fill="none" stroke="black" d="M587.79,-712.59C496.16,-697.05 658.29,-463 548.62,-463"/>
<polygon fill="black" stroke="black" points="587.84,-712.59 597.46,-717.86 593.16,-713.01 597.48,-713.35 597.48,-713.35 597.48,-713.35 593.16,-713.01 598.16,-708.89 587.84,-712.59"/>
<text text-anchor="start" x="366.11" y="-723.4" font-family="Arial" font-size="10.00">FOREIGN KEY (item_id) REFERENCES items (id)</text>
</g>
<!-- orders -->
<g id="node4" class="node">
<title>orders</title>
<polygon fill="#efefef" stroke="none" points="652.16,-463 652.16,-498.6 843.59,-498.6 843.59,-463 652.16,-463"/>
<polygon fill="none" stroke="black" points="652.16,-463 652.16,-498.6 843.59,-498.6 843.59,-463 652.16,-463"/>
<text text-anchor="start" x="663.14" y="-476.4" font-family="Arial Bold" font-size="18.00">orders</text>
<text text-anchor="start" x="708.12" y="-476.4" font-family="Arial" font-size="14.00">    </text>
<text text-anchor="start" x="739.24" y="-476.4" font-family="Arial" font-size="14.00" fill="#666666">[BASE TABLE]</text>
<polygon fill="none" stroke="black" points="652.16,-432.2 652.16,-463 843.59,-463 843.59,-432.2 652.16,-432.2"/>
<text text-anchor="start" x="659.16" y="-444.4" font-family="Arial" font-size="14.00">id </text>
<text text-anchor="start" x="673.95" y="-444.4" font-family="Arial" font-size="14.00" fill="#666666">[int]</text>
<polygon fill="none" stroke="black" points="652.16,-401.4 652.16,-432.2 843.59,-432.2 843.59,-401.4 652.16,-401.4"/>
<text text-anchor="start" x="659.16" y="-413.6" font-family="Arial" font-size="14.00">user_id </text>
<text text-anchor="start" x="708.97" y="-413.6" font-family="Arial" font-size="14.00" fill="#666666">[int]</text>
<polygon fill="none" stroke="black" points="652.16,-370.6 652.16,-401.4 843.59,-401.4 843.59,-370.6 652.16,-370.6"/>
<text text-anchor="start" x="659.16" y="-382.8" font-family="Arial" font-size="14.00">order_date </text>
<text text-anchor="start" x="730.77" y="-382.8" font-family="Arial" font-size="14.00" fill="#666666">[timestamp]</text>
<polygon fill="none" stroke="black" points="652.16,-339.8 652.16,-370.6 843.59,-370.6 843.59,-339.8 652.16,-339.8"/>
<text text-anchor="start" x="659.16" y="-352" font-family="Arial" font-size="14.00">total_amount </text>
<text text-anchor="start" x="743.99" y="-352" font-family="Arial" font-size="14.00" fill="#666666">[decimal(10,2)]</text>
</g>
<!-- ordered_items&#45;&gt;orders -->
<g id="edge3" class="edge">
<title>ordered_items:order_id&#45;&gt;orders:id</title>
<path fill="none" stroke="black" d="M851.78,-743.35C905.7,-733.64 879.27,-643.49 840.6,-593.2 787.68,-524.38 705.22,-610.51 652.16,-541.8 626.57,-508.66 609.29,-447.6 651.16,-447.6"/>
<polygon fill="black" stroke="black" points="851.9,-743.34 841.56,-739.69 846.58,-743.78 842.27,-744.14 842.27,-744.14 842.27,-744.14 846.58,-743.78 842.31,-748.66 851.9,-743.34"/>
<text text-anchor="start" x="848.6" y="-754.2" font-family="Arial" font-size="10.00">FOREIGN KEY (order_id) REFERENCES orders (id)</text>
</g>
<!-- orders&#45;&gt;users -->
<g id="edge5" class="edge">
<title>orders:user_id&#45;&gt;users:id</title>
<path fill="none" stroke="black" d="M640.98,-416.04C545.38,-400.45 740.4,-151 625.42,-151"/>
<polygon fill="black" stroke="black" points="640.85,-416.03 650.49,-421.26 646.17,-416.43 650.49,-416.75 650.49,-416.75 650.49,-416.75 646.17,-416.43 651.16,-412.29 640.85,-416.03"/>
<text text-anchor="start" x="598.12" y="-400.8" font-family="Arial" font-size="10.00">FOREIGN KEY (user_id) REFERENCES users (id)</text>
</g>
</g>
</svg>
