<?xml version="1.0" encoding="UTF-8" standalone="no"?>
<!DOCTYPE svg PUBLIC "-//W3C//DTD SVG 1.1//EN"
 "http://www.w3.org/Graphics/SVG/1.1/DTD/svg11.dtd">
<!-- Generated by graphviz version 12.1.2 (20240928.0832)
 -->
<!-- Title: users Pages: 1 -->
<svg width="616pt" height="540pt"
 viewBox="0.00 0.00 615.83 540.40" xmlns="http://www.w3.org/2000/svg" xmlns:xlink="http://www.w3.org/1999/xlink">
<g id="graph0" class="graph" transform="scale(1 1) rotate(0) translate(4 536.4)">
<title>users</title>
<polygon fill="white" stroke="none" points="-4,4 -4,-536.4 611.83,-536.4 611.83,4 -4,4"/>
<!-- users -->
<g id="node1" class="node">
<title>users</title>
<polygon fill="#efefef" stroke="none" points="210.37,-169.4 210.37,-205 413.46,-205 413.46,-169.4 210.37,-169.4"/>
<polygon fill="none" stroke="black" points="210.37,-169.4 210.37,-205 413.46,-205 413.46,-169.4 210.37,-169.4"/>
<text text-anchor="start" x="231.17" y="-182.8" font-family="Arial Bold" font-size="18.00">users</text>
<text text-anchor="start" x="268.17" y="-182.8" font-family="Arial" font-size="14.00">    </text>
<text text-anchor="start" x="299.28" y="-182.8" font-family="Arial" font-size="14.00" fill="#666666">[BASE TABLE]</text>
<polygon fill="none" stroke="black" points="210.37,-138.6 210.37,-169.4 413.46,-169.4 413.46,-138.6 210.37,-138.6"/>
<text text-anchor="start" x="217.37" y="-150.8" font-family="Arial" font-size="14.00">id </text>
<text text-anchor="start" x="232.15" y="-150.8" font-family="Arial" font-size="14.00" fill="#666666">[int]</text>
<polygon fill="none" stroke="black" points="210.37,-107.8 210.37,-138.6 413.46,-138.6 413.46,-107.8 210.37,-107.8"/>
<text text-anchor="start" x="217.37" y="-120" font-family="Arial" font-size="14.00">username </text>
<text text-anchor="start" x="283.51" y="-120" font-family="Arial" font-size="14.00" fill="#666666">[varchar(255)]</text>
<polygon fill="none" stroke="black" points="210.37,-77 210.37,-107.8 413.46,-107.8 413.46,-77 210.37,-77"/>
<text text-anchor="start" x="217.37" y="-89.2" font-family="Arial" font-size="14.00">email </text>
<text text-anchor="start" x="254.71" y="-89.2" font-family="Arial" font-size="14.00" fill="#666666">[varchar(255)]</text>
<polygon fill="none" stroke="black" points="210.37,-46.2 210.37,-77 413.46,-77 413.46,-46.2 210.37,-46.2"/>
<text text-anchor="start" x="217.37" y="-58.4" font-family="Arial" font-size="14.00">password_hash </text>
<text text-anchor="start" x="319.32" y="-58.4" font-family="Arial" font-size="14.00" fill="#666666">[varchar(255)]</text>
<polygon fill="none" stroke="black" stroke-width="3" points="208.87,-44.7 208.87,-206.5 414.96,-206.5 414.96,-44.7 208.87,-44.7"/>
</g>
<!-- current_cart -->
<g id="node2" class="node">
<title>current_cart</title>
<polygon fill="#efefef" stroke="none" points="43.2,-453.6 43.2,-489.2 268.63,-489.2 268.63,-453.6 43.2,-453.6"/>
<polygon fill="none" stroke="black" points="43.2,-453.6 43.2,-489.2 268.63,-489.2 268.63,-453.6 43.2,-453.6"/>
<text text-anchor="start" x="50.2" y="-467" font-family="Arial Bold" font-size="18.00">current_cart</text>
<text text-anchor="start" x="137.14" y="-467" font-family="Arial" font-size="14.00">    </text>
<text text-anchor="start" x="168.26" y="-467" font-family="Arial" font-size="14.00" fill="#666666">[BASE TABLE]</text>
<polygon fill="none" stroke="black" points="43.2,-422.8 43.2,-453.6 268.63,-453.6 268.63,-422.8 43.2,-422.8"/>
<text text-anchor="start" x="50.2" y="-435" font-family="Arial" font-size="14.00">id </text>
<text text-anchor="start" x="64.99" y="-435" font-family="Arial" font-size="14.00" fill="#666666">[int]</text>
<polygon fill="none" stroke="black" points="43.2,-392 43.2,-422.8 268.63,-422.8 268.63,-392 43.2,-392"/>
<text text-anchor="start" x="50.2" y="-404.2" font-family="Arial" font-size="14.00">user_id </text>
<text text-anchor="start" x="100.01" y="-404.2" font-family="Arial" font-size="14.00" fill="#666666">[int]</text>
<polygon fill="none" stroke="black" points="43.2,-361.2 43.2,-392 268.63,-392 268.63,-361.2 43.2,-361.2"/>
<text text-anchor="start" x="50.2" y="-373.4" font-family="Arial" font-size="14.00">item_id </text>
<text text-anchor="start" x="99.22" y="-373.4" font-family="Arial" font-size="14.00" fill="#666666">[int]</text>
<polygon fill="none" stroke="black" points="43.2,-330.4 43.2,-361.2 268.63,-361.2 268.63,-330.4 43.2,-330.4"/>
<text text-anchor="start" x="50.2" y="-342.6" font-family="Arial" font-size="14.00">quantity </text>
<text text-anchor="start" x="103.12" y="-342.6" font-family="Arial" font-size="14.00" fill="#666666">[int]</text>
</g>
<!-- current_cart&#45;&gt;users -->
<g id="edge1" class="edge">
<title>current_cart:user_id&#45;&gt;users:id</title>
<path fill="none" stroke="black" d="M279.72,-406.34C319.1,-397.18 293,-330.48 268.63,-287.2 253.7,-260.68 225.33,-277.71 210.37,-251.2 189.13,-213.58 166.17,-154 209.37,-154"/>
<polygon fill="black" stroke="black" points="279.91,-406.32 269.49,-402.89 274.6,-406.88 270.3,-407.33 270.3,-407.33 270.3,-407.33 274.6,-406.88 270.43,-411.84 279.91,-406.32"/>
<text text-anchor="start" x="276.63" y="-417.4" font-family="Arial" font-size="10.00">FOREIGN KEY (user_id) REFERENCES users (id)</text>
</g>
<!-- orders -->
<g id="node3" class="node">
<title>orders</title>
<polygon fill="#efefef" stroke="none" points="373.2,-453.6 373.2,-489.2 564.63,-489.2 564.63,-453.6 373.2,-453.6"/>
<polygon fill="none" stroke="black" points="373.2,-453.6 373.2,-489.2 564.63,-489.2 564.63,-453.6 373.2,-453.6"/>
<text text-anchor="start" x="384.18" y="-467" font-family="Arial Bold" font-size="18.00">orders</text>
<text text-anchor="start" x="429.16" y="-467" font-family="Arial" font-size="14.00">    </text>
<text text-anchor="start" x="460.28" y="-467" font-family="Arial" font-size="14.00" fill="#666666">[BASE TABLE]</text>
<polygon fill="none" stroke="black" points="373.2,-422.8 373.2,-453.6 564.63,-453.6 564.63,-422.8 373.2,-422.8"/>
<text text-anchor="start" x="380.2" y="-435" font-family="Arial" font-size="14.00">id </text>
<text text-anchor="start" x="394.99" y="-435" font-family="Arial" font-size="14.00" fill="#666666">[int]</text>
<polygon fill="none" stroke="black" points="373.2,-392 373.2,-422.8 564.63,-422.8 564.63,-392 373.2,-392"/>
<text text-anchor="start" x="380.2" y="-404.2" font-family="Arial" font-size="14.00">user_id </text>
<text text-anchor="start" x="430.01" y="-404.2" font-family="Arial" font-size="14.00" fill="#666666">[int]</text>
<polygon fill="none" stroke="black" points="373.2,-361.2 373.2,-392 564.63,-392 564.63,-361.2 373.2,-361.2"/>
<text text-anchor="start" x="380.2" y="-373.4" font-family="Arial" font-size="14.00">order_date </text>
<text text-anchor="start" x="451.81" y="-373.4" font-family="Arial" font-size="14.00" fill="#666666">[timestamp]</text>
<polygon fill="none" stroke="black" points="373.2,-330.4 373.2,-361.2 564.63,-361.2 564.63,-330.4 373.2,-330.4"/>
<text text-anchor="start" x="380.2" y="-342.6" font-family="Arial" font-size="14.00">total_amount </text>
<text text-anchor="start" x="465.04" y="-342.6" font-family="Arial" font-size="14.00" fill="#666666">[decimal(10,2)]</text>
</g>
<!-- orders&#45;&gt;users -->
<g id="edge2" class="edge">
<title>orders:user_id&#45;&gt;users:id</title>
<path fill="none" stroke="black" d="M362.17,-406.37C323.28,-397.45 352.73,-332.45 373.2,-287.2 383.09,-265.33 403.55,-273.06 413.46,-251.2 431.31,-211.85 457.67,-154 414.46,-154"/>
<polygon fill="black" stroke="black" points="361.92,-406.35 371.41,-411.84 367.23,-406.89 371.54,-407.33 371.54,-407.33 371.54,-407.33 367.23,-406.89 372.33,-402.89 361.92,-406.35"/>
<text text-anchor="start" x="319.16" y="-391.4" font-family="Arial" font-size="10.00">FOREIGN KEY (user_id) REFERENCES users (id)</text>
</g>
</g>
</svg>
