<?xml version="1.0" encoding="UTF-8" standalone="no"?>
<!DOCTYPE svg PUBLIC "-//W3C//DTD SVG 1.1//EN"
 "http://www.w3.org/Graphics/SVG/1.1/DTD/svg11.dtd">
<!-- Generated by graphviz version 12.1.2 (20240928.0832)
 -->
<!-- Title: 注文 Pages: 1 -->
<svg width="330pt" height="310pt"
 viewBox="0.00 0.00 330.00 310.00" xmlns="http://www.w3.org/2000/svg" xmlns:xlink="http://www.w3.org/1999/xlink">
<g id="graph0" class="graph" transform="scale(1 1) rotate(0) translate(4 306)">
<title>注文</title>
<polygon fill="white" stroke="none" points="-4,4 -4,-306 326,-306 326,4 -4,4"/>
<g id="clust1" class="cluster">
<title>cluster_group_0</title>
<path fill="none" stroke="#1f91be" stroke-width="2" d="M20,-8C20,-8 302,-8 302,-8 308,-8 314,-14 314,-20 314,-20 314,-282 314,-282 314,-288 308,-294 302,-294 302,-294 20,-294 20,-294 14,-294 8,-288 8,-282 8,-282 8,-20 8,-20 8,-14 14,-8 20,-8"/>
<text text-anchor="middle" x="161" y="-277.4" font-family="Arial" font-size="14.00">ユーザ</text>
</g>
<!-- users -->
<g id="node1" class="node">
<title>users</title>
<polygon fill="#efefef" stroke="none" points="59.45,-182.4 59.45,-218 262.55,-218 262.55,-182.4 59.45,-182.4"/>
<polygon fill="none" stroke="black" points="59.45,-182.4 59.45,-218 262.55,-218 262.55,-182.4 59.45,-182.4"/>
<text text-anchor="start" x="80.26" y="-195.8" font-family="Arial Bold" font-size="18.00">users</text>
<text text-anchor="start" x="117.25" y="-195.8" font-family="Arial" font-size="14.00">    </text>
<text text-anchor="start" x="148.37" y="-195.8" font-family="Arial" font-size="14.00" fill="#666666">[BASE TABLE]</text>
<polygon fill="none" stroke="black" points="59.45,-151.6 59.45,-182.4 262.55,-182.4 262.55,-151.6 59.45,-151.6"/>
<text text-anchor="start" x="66.45" y="-163.8" font-family="Arial" font-size="14.00">id </text>
<text text-anchor="start" x="81.24" y="-163.8" font-family="Arial" font-size="14.00" fill="#666666">[int]</text>
<polygon fill="none" stroke="black" points="59.45,-120.8 59.45,-151.6 262.55,-151.6 262.55,-120.8 59.45,-120.8"/>
<text text-anchor="start" x="66.45" y="-133" font-family="Arial" font-size="14.00">username </text>
<text text-anchor="start" x="132.6" y="-133" font-family="Arial" font-size="14.00" fill="#666666">[varchar(255)]</text>
<polygon fill="none" stroke="black" points="59.45,-90 59.45,-120.8 262.55,-120.8 262.55,-90 59.45,-90"/>
<text text-anchor="start" x="66.45" y="-102.2" font-family="Arial" font-size="14.00">email </text>
<text text-anchor="start" x="103.8" y="-102.2" font-family="Arial" font-size="14.00" fill="#666666">[varchar(255)]</text>
<polygon fill="none" stroke="black" points="59.45,-59.2 59.45,-90 262.55,-90 262.55,-59.2 59.45,-59.2"/>
<text text-anchor="start" x="66.45" y="-71.4" font-family="Arial" font-size="14.00">password_hash </text>
<text text-anchor="start" x="168.4" y="-71.4" font-family="Arial" font-size="14.00" fill="#666666">[varchar(255)]</text>
</g>
</g>
</svg>
