<?xml version="1.0" encoding="UTF-8" standalone="no"?>
<!DOCTYPE svg PUBLIC "-//W3C//DTD SVG 1.1//EN"
 "http://www.w3.org/Graphics/SVG/1.1/DTD/svg11.dtd">
<!-- Generated by graphviz version 12.1.2 (20240928.0832)
 -->
<!-- Title: 注文 Pages: 1 -->
<svg width="847pt" height="918pt"
 viewBox="0.00 0.00 846.63 918.00" xmlns="http://www.w3.org/2000/svg" xmlns:xlink="http://www.w3.org/1999/xlink">
<g id="graph0" class="graph" transform="scale(1 1) rotate(0) translate(4 914)">
<title>注文</title>
<polygon fill="white" stroke="none" points="-4,4 -4,-914 842.63,-914 842.63,4 -4,4"/>
<g id="clust1" class="cluster">
<title>cluster_group_0</title>
<path fill="none" stroke="#1f91be" stroke-width="2" d="M84.76,-273.2C84.76,-273.2 636.76,-273.2 636.76,-273.2 642.76,-273.2 648.76,-279.2 648.76,-285.2 648.76,-285.2 648.76,-890 648.76,-890 648.76,-896 642.76,-902 636.76,-902 636.76,-902 84.76,-902 84.76,-902 78.76,-902 72.76,-896 72.76,-890 72.76,-890 72.76,-285.2 72.76,-285.2 72.76,-279.2 78.76,-273.2 84.76,-273.2"/>
<text text-anchor="middle" x="360.76" y="-885.4" font-family="Arial" font-size="14.00">注文</text>
</g>
<!-- items -->
<g id="node1" class="node">
<title>items</title>
<polygon fill="#efefef" stroke="none" points="124.02,-478.4 124.02,-514 301.5,-514 301.5,-478.4 124.02,-478.4"/>
<polygon fill="none" stroke="black" points="124.02,-478.4 124.02,-514 301.5,-514 301.5,-478.4 124.02,-478.4"/>
<text text-anchor="start" x="131.02" y="-491.8" font-family="Arial Bold" font-size="18.00">items</text>
<text text-anchor="start" x="170.01" y="-491.8" font-family="Arial" font-size="14.00">    </text>
<text text-anchor="start" x="201.13" y="-491.8" font-family="Arial" font-size="14.00" fill="#666666">[BASE TABLE]</text>
<polygon fill="none" stroke="black" points="124.02,-447.6 124.02,-478.4 301.5,-478.4 301.5,-447.6 124.02,-447.6"/>
<text text-anchor="start" x="131.02" y="-459.8" font-family="Arial" font-size="14.00">id </text>
<text text-anchor="start" x="145.8" y="-459.8" font-family="Arial" font-size="14.00" fill="#666666">[int]</text>
<polygon fill="none" stroke="black" points="124.02,-416.8 124.02,-447.6 301.5,-447.6 301.5,-416.8 124.02,-416.8"/>
<text text-anchor="start" x="131.02" y="-429" font-family="Arial" font-size="14.00">name </text>
<text text-anchor="start" x="169.93" y="-429" font-family="Arial" font-size="14.00" fill="#666666">[varchar(255)]</text>
<polygon fill="none" stroke="black" points="124.02,-386 124.02,-416.8 301.5,-416.8 301.5,-386 124.02,-386"/>
<text text-anchor="start" x="131.02" y="-398.2" font-family="Arial" font-size="14.00">description </text>
<text text-anchor="start" x="202.61" y="-398.2" font-family="Arial" font-size="14.00" fill="#666666">[text]</text>
<polygon fill="none" stroke="black" points="124.02,-355.2 124.02,-386 301.5,-386 301.5,-355.2 124.02,-355.2"/>
<text text-anchor="start" x="131.02" y="-367.4" font-family="Arial" font-size="14.00">price </text>
<text text-anchor="start" x="165.25" y="-367.4" font-family="Arial" font-size="14.00" fill="#666666">[decimal(10,2)]</text>
<polygon fill="none" stroke="black" points="124.02,-324.4 124.02,-355.2 301.5,-355.2 301.5,-324.4 124.02,-324.4"/>
<text text-anchor="start" x="131.02" y="-336.6" font-family="Arial" font-size="14.00">stock </text>
<text text-anchor="start" x="167.58" y="-336.6" font-family="Arial" font-size="14.00" fill="#666666">[int]</text>
</g>
<!-- ordered_items -->
<g id="node2" class="node">
<title>ordered_items</title>
<polygon fill="#efefef" stroke="none" points="240.03,-790.4 240.03,-826 481.49,-826 481.49,-790.4 240.03,-790.4"/>
<polygon fill="none" stroke="black" points="240.03,-790.4 240.03,-826 481.49,-826 481.49,-790.4 240.03,-790.4"/>
<text text-anchor="start" x="247.03" y="-803.8" font-family="Arial Bold" font-size="18.00">ordered_items</text>
<text text-anchor="start" x="350" y="-803.8" font-family="Arial" font-size="14.00">    </text>
<text text-anchor="start" x="381.12" y="-803.8" font-family="Arial" font-size="14.00" fill="#666666">[BASE TABLE]</text>
<polygon fill="none" stroke="black" points="240.03,-759.6 240.03,-790.4 481.49,-790.4 481.49,-759.6 240.03,-759.6"/>
<text text-anchor="start" x="247.03" y="-771.8" font-family="Arial" font-size="14.00">id </text>
<text text-anchor="start" x="261.82" y="-771.8" font-family="Arial" font-size="14.00" fill="#666666">[int]</text>
<polygon fill="none" stroke="black" points="240.03,-728.8 240.03,-759.6 481.49,-759.6 481.49,-728.8 240.03,-728.8"/>
<text text-anchor="start" x="247.03" y="-741" font-family="Arial" font-size="14.00">order_id </text>
<text text-anchor="start" x="302.29" y="-741" font-family="Arial" font-size="14.00" fill="#666666">[int]</text>
<polygon fill="none" stroke="black" points="240.03,-698 240.03,-728.8 481.49,-728.8 481.49,-698 240.03,-698"/>
<text text-anchor="start" x="247.03" y="-710.2" font-family="Arial" font-size="14.00">item_id </text>
<text text-anchor="start" x="296.05" y="-710.2" font-family="Arial" font-size="14.00" fill="#666666">[int]</text>
<polygon fill="none" stroke="black" points="240.03,-667.2 240.03,-698 481.49,-698 481.49,-667.2 240.03,-667.2"/>
<text text-anchor="start" x="247.03" y="-679.4" font-family="Arial" font-size="14.00">quantity </text>
<text text-anchor="start" x="299.96" y="-679.4" font-family="Arial" font-size="14.00" fill="#666666">[int]</text>
<polygon fill="none" stroke="black" points="240.03,-636.4 240.03,-667.2 481.49,-667.2 481.49,-636.4 240.03,-636.4"/>
<text text-anchor="start" x="247.03" y="-648.6" font-family="Arial" font-size="14.00">price_at_purchase </text>
<text text-anchor="start" x="366.11" y="-648.6" font-family="Arial" font-size="14.00" fill="#666666">[decimal(10,2)]</text>
</g>
<!-- ordered_items&#45;&gt;items -->
<g id="edge2" class="edge">
<title>ordered_items:item_id&#45;&gt;items:id</title>
<path fill="none" stroke="black" d="M228.94,-712.34C189.5,-703.14 215.15,-636.19 240.03,-593.2 255.89,-565.8 285.61,-584.58 301.5,-557.2 322.52,-520.99 344.37,-463 302.5,-463"/>
<polygon fill="black" stroke="black" points="228.76,-712.32 238.23,-717.84 234.06,-712.88 238.37,-713.33 238.37,-713.33 238.37,-713.33 234.06,-712.88 239.17,-708.89 228.76,-712.32"/>
<text text-anchor="start" x="7" y="-723.4" font-family="Arial" font-size="10.00">FOREIGN KEY (item_id) REFERENCES items (id)</text>
</g>
<!-- orders -->
<g id="node3" class="node">
<title>orders</title>
<polygon fill="#efefef" stroke="none" points="406.05,-463 406.05,-498.6 597.47,-498.6 597.47,-463 406.05,-463"/>
<polygon fill="none" stroke="black" points="406.05,-463 406.05,-498.6 597.47,-498.6 597.47,-463 406.05,-463"/>
<text text-anchor="start" x="417.02" y="-476.4" font-family="Arial Bold" font-size="18.00">orders</text>
<text text-anchor="start" x="462.01" y="-476.4" font-family="Arial" font-size="14.00">    </text>
<text text-anchor="start" x="493.12" y="-476.4" font-family="Arial" font-size="14.00" fill="#666666">[BASE TABLE]</text>
<polygon fill="none" stroke="black" points="406.05,-432.2 406.05,-463 597.47,-463 597.47,-432.2 406.05,-432.2"/>
<text text-anchor="start" x="413.05" y="-444.4" font-family="Arial" font-size="14.00">id </text>
<text text-anchor="start" x="427.83" y="-444.4" font-family="Arial" font-size="14.00" fill="#666666">[int]</text>
<polygon fill="none" stroke="black" points="406.05,-401.4 406.05,-432.2 597.47,-432.2 597.47,-401.4 406.05,-401.4"/>
<text text-anchor="start" x="413.05" y="-413.6" font-family="Arial" font-size="14.00">user_id </text>
<text text-anchor="start" x="462.85" y="-413.6" font-family="Arial" font-size="14.00" fill="#666666">[int]</text>
<polygon fill="none" stroke="black" points="406.05,-370.6 406.05,-401.4 597.47,-401.4 597.47,-370.6 406.05,-370.6"/>
<text text-anchor="start" x="413.05" y="-382.8" font-family="Arial" font-size="14.00">order_date </text>
<text text-anchor="start" x="484.65" y="-382.8" font-family="Arial" font-size="14.00" fill="#666666">[timestamp]</text>
<polygon fill="none" stroke="black" points="406.05,-339.8 406.05,-370.6 597.47,-370.6 597.47,-339.8 406.05,-339.8"/>
<text text-anchor="start" x="413.05" y="-352" font-family="Arial" font-size="14.00">total_amount </text>
<text text-anchor="start" x="497.88" y="-352" font-family="Arial" font-size="14.00" fill="#666666">[decimal(10,2)]</text>
</g>
<!-- ordered_items&#45;&gt;orders -->
<g id="edge1" class="edge">
<title>ordered_items:order_id&#45;&gt;orders:id</title>
<path fill="none" stroke="black" d="M492.59,-743.4C545.62,-734.26 511.33,-649.19 481.49,-593.2 462.41,-557.4 425.2,-577.57 406.05,-541.8 386.28,-504.89 363.18,-447.6 405.05,-447.6"/>
<polygon fill="black" stroke="black" points="492.79,-743.38 482.46,-739.69 487.47,-743.8 483.15,-744.15 483.15,-744.15 483.15,-744.15 487.47,-743.8 483.18,-748.66 492.79,-743.38"/>
<text text-anchor="start" x="489.49" y="-754.2" font-family="Arial" font-size="10.00">FOREIGN KEY (order_id) REFERENCES orders (id)</text>
</g>
<!-- users -->
<g id="node4" class="node">
<title>users</title>
<polygon fill="#efefef" stroke="none" points="400.21,-166.4 400.21,-202 603.31,-202 603.31,-166.4 400.21,-166.4"/>
<polygon fill="none" stroke="black" points="400.21,-166.4 400.21,-202 603.31,-202 603.31,-166.4 400.21,-166.4"/>
<text text-anchor="start" x="421.02" y="-179.8" font-family="Arial Bold" font-size="18.00">users</text>
<text text-anchor="start" x="458.01" y="-179.8" font-family="Arial" font-size="14.00">    </text>
<text text-anchor="start" x="489.13" y="-179.8" font-family="Arial" font-size="14.00" fill="#666666">[BASE TABLE]</text>
<polygon fill="none" stroke="black" points="400.21,-135.6 400.21,-166.4 603.31,-166.4 603.31,-135.6 400.21,-135.6"/>
<text text-anchor="start" x="407.21" y="-147.8" font-family="Arial" font-size="14.00">id </text>
<text text-anchor="start" x="422" y="-147.8" font-family="Arial" font-size="14.00" fill="#666666">[int]</text>
<polygon fill="none" stroke="black" points="400.21,-104.8 400.21,-135.6 603.31,-135.6 603.31,-104.8 400.21,-104.8"/>
<text text-anchor="start" x="407.21" y="-117" font-family="Arial" font-size="14.00">username </text>
<text text-anchor="start" x="473.36" y="-117" font-family="Arial" font-size="14.00" fill="#666666">[varchar(255)]</text>
<polygon fill="none" stroke="black" points="400.21,-74 400.21,-104.8 603.31,-104.8 603.31,-74 400.21,-74"/>
<text text-anchor="start" x="407.21" y="-86.2" font-family="Arial" font-size="14.00">email </text>
<text text-anchor="start" x="444.56" y="-86.2" font-family="Arial" font-size="14.00" fill="#666666">[varchar(255)]</text>
<polygon fill="none" stroke="black" points="400.21,-43.2 400.21,-74 603.31,-74 603.31,-43.2 400.21,-43.2"/>
<text text-anchor="start" x="407.21" y="-55.4" font-family="Arial" font-size="14.00">password_hash </text>
<text text-anchor="start" x="509.16" y="-55.4" font-family="Arial" font-size="14.00" fill="#666666">[varchar(255)]</text>
</g>
<!-- orders&#45;&gt;users -->
<g id="edge3" class="edge">
<title>orders:user_id&#45;&gt;users:id</title>
<path fill="none" stroke="black" d="M608.31,-414.17C658.02,-386.56 659.93,-151 604.31,-151"/>
<polygon fill="black" stroke="black" points="608.46,-414.13 597.63,-412.37 603.3,-415.51 599.12,-416.63 599.12,-416.63 599.12,-416.63 603.3,-415.51 599.96,-421.06 608.46,-414.13"/>
<text text-anchor="start" x="605.47" y="-426.8" font-family="Arial" font-size="10.00">FOREIGN KEY (user_id) REFERENCES users (id)</text>
</g>
</g>
</svg>
