<?xml version="1.0" encoding="UTF-8" standalone="no"?>
<!DOCTYPE svg PUBLIC "-//W3C//DTD SVG 1.1//EN"
 "http://www.w3.org/Graphics/SVG/1.1/DTD/svg11.dtd">
<!-- Generated by graphviz version 12.1.2 (20240928.0832)
 -->
<!-- Title: 購入前 Pages: 1 -->
<svg width="715pt" height="622pt"
 viewBox="0.00 0.00 714.62 622.00" xmlns="http://www.w3.org/2000/svg" xmlns:xlink="http://www.w3.org/1999/xlink">
<g id="graph0" class="graph" transform="scale(1 1) rotate(0) translate(4 618)">
<title>購入前</title>
<polygon fill="white" stroke="none" points="-4,4 -4,-618 710.62,-618 710.62,4 -4,4"/>
<g id="clust1" class="cluster">
<title>cluster_group_0</title>
<path fill="none" stroke="#1f91be" stroke-width="2" d="M70.75,-8C70.75,-8 634.75,-8 634.75,-8 640.75,-8 646.75,-14 646.75,-20 646.75,-20 646.75,-594 646.75,-594 646.75,-600 640.75,-606 634.75,-606 634.75,-606 70.75,-606 70.75,-606 64.75,-606 58.75,-600 58.75,-594 58.75,-594 58.75,-20 58.75,-20 58.75,-14 64.75,-8 70.75,-8"/>
<text text-anchor="middle" x="352.75" y="-589.4" font-family="Arial" font-size="14.00">購入前</text>
</g>
<!-- current_cart -->
<g id="node1" class="node">
<title>current_cart</title>
<polygon fill="#efefef" stroke="none" points="240.03,-494.4 240.03,-530 465.46,-530 465.46,-494.4 240.03,-494.4"/>
<polygon fill="none" stroke="black" points="240.03,-494.4 240.03,-530 465.46,-530 465.46,-494.4 240.03,-494.4"/>
<text text-anchor="start" x="247.03" y="-507.8" font-family="Arial Bold" font-size="18.00">current_cart</text>
<text text-anchor="start" x="333.98" y="-507.8" font-family="Arial" font-size="14.00">    </text>
<text text-anchor="start" x="365.09" y="-507.8" font-family="Arial" font-size="14.00" fill="#666666">[BASE TABLE]</text>
<polygon fill="none" stroke="black" points="240.03,-463.6 240.03,-494.4 465.46,-494.4 465.46,-463.6 240.03,-463.6"/>
<text text-anchor="start" x="247.03" y="-475.8" font-family="Arial" font-size="14.00">id </text>
<text text-anchor="start" x="261.82" y="-475.8" font-family="Arial" font-size="14.00" fill="#666666">[int]</text>
<polygon fill="none" stroke="black" points="240.03,-432.8 240.03,-463.6 465.46,-463.6 465.46,-432.8 240.03,-432.8"/>
<text text-anchor="start" x="247.03" y="-445" font-family="Arial" font-size="14.00">user_id </text>
<text text-anchor="start" x="296.84" y="-445" font-family="Arial" font-size="14.00" fill="#666666">[int]</text>
<polygon fill="none" stroke="black" points="240.03,-402 240.03,-432.8 465.46,-432.8 465.46,-402 240.03,-402"/>
<text text-anchor="start" x="247.03" y="-414.2" font-family="Arial" font-size="14.00">item_id </text>
<text text-anchor="start" x="296.05" y="-414.2" font-family="Arial" font-size="14.00" fill="#666666">[int]</text>
<polygon fill="none" stroke="black" points="240.03,-371.2 240.03,-402 465.46,-402 465.46,-371.2 240.03,-371.2"/>
<text text-anchor="start" x="247.03" y="-383.4" font-family="Arial" font-size="14.00">quantity </text>
<text text-anchor="start" x="299.96" y="-383.4" font-family="Arial" font-size="14.00" fill="#666666">[int]</text>
</g>
<!-- items -->
<g id="node2" class="node">
<title>items</title>
<polygon fill="#efefef" stroke="none" points="110.01,-213.2 110.01,-248.8 287.49,-248.8 287.49,-213.2 110.01,-213.2"/>
<polygon fill="none" stroke="black" points="110.01,-213.2 110.01,-248.8 287.49,-248.8 287.49,-213.2 110.01,-213.2"/>
<text text-anchor="start" x="117.01" y="-226.6" font-family="Arial Bold" font-size="18.00">items</text>
<text text-anchor="start" x="156" y="-226.6" font-family="Arial" font-size="14.00">    </text>
<text text-anchor="start" x="187.12" y="-226.6" font-family="Arial" font-size="14.00" fill="#666666">[BASE TABLE]</text>
<polygon fill="none" stroke="black" points="110.01,-182.4 110.01,-213.2 287.49,-213.2 287.49,-182.4 110.01,-182.4"/>
<text text-anchor="start" x="117.01" y="-194.6" font-family="Arial" font-size="14.00">id </text>
<text text-anchor="start" x="131.79" y="-194.6" font-family="Arial" font-size="14.00" fill="#666666">[int]</text>
<polygon fill="none" stroke="black" points="110.01,-151.6 110.01,-182.4 287.49,-182.4 287.49,-151.6 110.01,-151.6"/>
<text text-anchor="start" x="117.01" y="-163.8" font-family="Arial" font-size="14.00">name </text>
<text text-anchor="start" x="155.92" y="-163.8" font-family="Arial" font-size="14.00" fill="#666666">[varchar(255)]</text>
<polygon fill="none" stroke="black" points="110.01,-120.8 110.01,-151.6 287.49,-151.6 287.49,-120.8 110.01,-120.8"/>
<text text-anchor="start" x="117.01" y="-133" font-family="Arial" font-size="14.00">description </text>
<text text-anchor="start" x="188.6" y="-133" font-family="Arial" font-size="14.00" fill="#666666">[text]</text>
<polygon fill="none" stroke="black" points="110.01,-90 110.01,-120.8 287.49,-120.8 287.49,-90 110.01,-90"/>
<text text-anchor="start" x="117.01" y="-102.2" font-family="Arial" font-size="14.00">price </text>
<text text-anchor="start" x="151.24" y="-102.2" font-family="Arial" font-size="14.00" fill="#666666">[decimal(10,2)]</text>
<polygon fill="none" stroke="black" points="110.01,-59.2 110.01,-90 287.49,-90 287.49,-59.2 110.01,-59.2"/>
<text text-anchor="start" x="117.01" y="-71.4" font-family="Arial" font-size="14.00">stock </text>
<text text-anchor="start" x="153.57" y="-71.4" font-family="Arial" font-size="14.00" fill="#666666">[int]</text>
</g>
<!-- current_cart&#45;&gt;items -->
<g id="edge2" class="edge">
<title>current_cart:item_id&#45;&gt;items:id</title>
<path fill="none" stroke="black" d="M228.79,-415.81C203.89,-406.64 223.98,-359.89 240.03,-328 251.94,-304.35 275.59,-315.65 287.49,-292 306.31,-254.6 330.36,-197.8 288.49,-197.8"/>
<polygon fill="black" stroke="black" points="228.82,-415.81 238.01,-421.8 234.09,-416.63 238.37,-417.3 238.37,-417.3 238.37,-417.3 234.09,-416.63 239.4,-412.9 228.82,-415.81"/>
<text text-anchor="start" x="7" y="-427.4" font-family="Arial" font-size="10.00">FOREIGN KEY (item_id) REFERENCES items (id)</text>
</g>
<!-- users -->
<g id="node3" class="node">
<title>users</title>
<polygon fill="#efefef" stroke="none" points="392.2,-197.8 392.2,-233.4 595.3,-233.4 595.3,-197.8 392.2,-197.8"/>
<polygon fill="none" stroke="black" points="392.2,-197.8 392.2,-233.4 595.3,-233.4 595.3,-197.8 392.2,-197.8"/>
<text text-anchor="start" x="413.01" y="-211.2" font-family="Arial Bold" font-size="18.00">users</text>
<text text-anchor="start" x="450" y="-211.2" font-family="Arial" font-size="14.00">    </text>
<text text-anchor="start" x="481.12" y="-211.2" font-family="Arial" font-size="14.00" fill="#666666">[BASE TABLE]</text>
<polygon fill="none" stroke="black" points="392.2,-167 392.2,-197.8 595.3,-197.8 595.3,-167 392.2,-167"/>
<text text-anchor="start" x="399.2" y="-179.2" font-family="Arial" font-size="14.00">id </text>
<text text-anchor="start" x="413.99" y="-179.2" font-family="Arial" font-size="14.00" fill="#666666">[int]</text>
<polygon fill="none" stroke="black" points="392.2,-136.2 392.2,-167 595.3,-167 595.3,-136.2 392.2,-136.2"/>
<text text-anchor="start" x="399.2" y="-148.4" font-family="Arial" font-size="14.00">username </text>
<text text-anchor="start" x="465.35" y="-148.4" font-family="Arial" font-size="14.00" fill="#666666">[varchar(255)]</text>
<polygon fill="none" stroke="black" points="392.2,-105.4 392.2,-136.2 595.3,-136.2 595.3,-105.4 392.2,-105.4"/>
<text text-anchor="start" x="399.2" y="-117.6" font-family="Arial" font-size="14.00">email </text>
<text text-anchor="start" x="436.55" y="-117.6" font-family="Arial" font-size="14.00" fill="#666666">[varchar(255)]</text>
<polygon fill="none" stroke="black" points="392.2,-74.6 392.2,-105.4 595.3,-105.4 595.3,-74.6 392.2,-74.6"/>
<text text-anchor="start" x="399.2" y="-86.8" font-family="Arial" font-size="14.00">password_hash </text>
<text text-anchor="start" x="501.15" y="-86.8" font-family="Arial" font-size="14.00" fill="#666666">[varchar(255)]</text>
</g>
<!-- current_cart&#45;&gt;users -->
<g id="edge1" class="edge">
<title>current_cart:user_id&#45;&gt;users:id</title>
<path fill="none" stroke="black" d="M476.53,-447.15C515.75,-438.07 488.56,-371.97 465.46,-328 446.97,-292.79 410.74,-311.79 392.2,-276.6 372.69,-239.56 349.33,-182.4 391.2,-182.4"/>
<polygon fill="black" stroke="black" points="476.74,-447.13 466.33,-443.69 471.44,-447.68 467.13,-448.13 467.13,-448.13 467.13,-448.13 471.44,-447.68 467.26,-452.64 476.74,-447.13"/>
<text text-anchor="start" x="473.46" y="-458.2" font-family="Arial" font-size="10.00">FOREIGN KEY (user_id) REFERENCES users (id)</text>
</g>
</g>
</svg>
