<?xml version="1.0" encoding="UTF-8" standalone="no"?>
<!DOCTYPE svg PUBLIC "-//W3C//DTD SVG 1.1//EN"
 "http://www.w3.org/Graphics/SVG/1.1/DTD/svg11.dtd">
<!-- Generated by graphviz version 12.1.2 (20240928.0832)
 -->
<!-- Title: business Pages: 1 -->
<svg width="888pt" height="622pt"
 viewBox="0.00 0.00 887.67 622.00" xmlns="http://www.w3.org/2000/svg" xmlns:xlink="http://www.w3.org/1999/xlink">
<g id="graph0" class="graph" transform="scale(1 1) rotate(0) translate(4 618)">
<title>business</title>
<polygon fill="white" stroke="none" points="-4,4 -4,-618 883.67,-618 883.67,4 -4,4"/>
<g id="clust1" class="cluster">
<title>cluster_group_0</title>
<path fill="none" stroke="#1f91be" stroke-width="2" d="M20,-8C20,-8 670,-8 670,-8 676,-8 682,-14 682,-20 682,-20 682,-594 682,-594 682,-600 676,-606 670,-606 670,-606 20,-606 20,-606 14,-606 8,-600 8,-594 8,-594 8,-20 8,-20 8,-14 14,-8 20,-8"/>
<text text-anchor="middle" x="345" y="-589.4" font-family="Arial" font-size="14.00">注文関連</text>
</g>
<!-- current_cart -->
<g id="node1" class="node">
<title>current_cart</title>
<polygon fill="#efefef" stroke="none" points="59.28,-479 59.28,-514.6 284.72,-514.6 284.72,-479 59.28,-479"/>
<polygon fill="none" stroke="black" points="59.28,-479 59.28,-514.6 284.72,-514.6 284.72,-479 59.28,-479"/>
<text text-anchor="start" x="66.28" y="-492.4" font-family="Arial Bold" font-size="18.00">current_cart</text>
<text text-anchor="start" x="153.23" y="-492.4" font-family="Arial" font-size="14.00">    </text>
<text text-anchor="start" x="184.34" y="-492.4" font-family="Arial" font-size="14.00" fill="#666666">[BASE TABLE]</text>
<polygon fill="none" stroke="black" points="59.28,-448.2 59.28,-479 284.72,-479 284.72,-448.2 59.28,-448.2"/>
<text text-anchor="start" x="66.28" y="-460.4" font-family="Arial" font-size="14.00">id </text>
<text text-anchor="start" x="81.07" y="-460.4" font-family="Arial" font-size="14.00" fill="#666666">[int]</text>
<polygon fill="none" stroke="black" points="59.28,-417.4 59.28,-448.2 284.72,-448.2 284.72,-417.4 59.28,-417.4"/>
<text text-anchor="start" x="66.28" y="-429.6" font-family="Arial" font-size="14.00">user_id </text>
<text text-anchor="start" x="116.09" y="-429.6" font-family="Arial" font-size="14.00" fill="#666666">[int]</text>
<polygon fill="none" stroke="black" points="59.28,-386.6 59.28,-417.4 284.72,-417.4 284.72,-386.6 59.28,-386.6"/>
<text text-anchor="start" x="66.28" y="-398.8" font-family="Arial" font-size="14.00">item_id </text>
<text text-anchor="start" x="115.31" y="-398.8" font-family="Arial" font-size="14.00" fill="#666666">[int]</text>
<polygon fill="none" stroke="black" points="59.28,-355.8 59.28,-386.6 284.72,-386.6 284.72,-355.8 59.28,-355.8"/>
<text text-anchor="start" x="66.28" y="-368" font-family="Arial" font-size="14.00">quantity </text>
<text text-anchor="start" x="119.21" y="-368" font-family="Arial" font-size="14.00" fill="#666666">[int]</text>
</g>
<!-- ordered_items -->
<g id="node2" class="node">
<title>ordered_items</title>
<polygon fill="#efefef" stroke="none" points="389.27,-494.4 389.27,-530 630.73,-530 630.73,-494.4 389.27,-494.4"/>
<polygon fill="none" stroke="black" points="389.27,-494.4 389.27,-530 630.73,-530 630.73,-494.4 389.27,-494.4"/>
<text text-anchor="start" x="396.27" y="-507.8" font-family="Arial Bold" font-size="18.00">ordered_items</text>
<text text-anchor="start" x="499.24" y="-507.8" font-family="Arial" font-size="14.00">    </text>
<text text-anchor="start" x="530.35" y="-507.8" font-family="Arial" font-size="14.00" fill="#666666">[BASE TABLE]</text>
<polygon fill="none" stroke="black" points="389.27,-463.6 389.27,-494.4 630.73,-494.4 630.73,-463.6 389.27,-463.6"/>
<text text-anchor="start" x="396.27" y="-475.8" font-family="Arial" font-size="14.00">id </text>
<text text-anchor="start" x="411.06" y="-475.8" font-family="Arial" font-size="14.00" fill="#666666">[int]</text>
<polygon fill="none" stroke="black" points="389.27,-432.8 389.27,-463.6 630.73,-463.6 630.73,-432.8 389.27,-432.8"/>
<text text-anchor="start" x="396.27" y="-445" font-family="Arial" font-size="14.00">order_id </text>
<text text-anchor="start" x="451.53" y="-445" font-family="Arial" font-size="14.00" fill="#666666">[int]</text>
<polygon fill="none" stroke="black" points="389.27,-402 389.27,-432.8 630.73,-432.8 630.73,-402 389.27,-402"/>
<text text-anchor="start" x="396.27" y="-414.2" font-family="Arial" font-size="14.00">item_id </text>
<text text-anchor="start" x="445.29" y="-414.2" font-family="Arial" font-size="14.00" fill="#666666">[int]</text>
<polygon fill="none" stroke="black" points="389.27,-371.2 389.27,-402 630.73,-402 630.73,-371.2 389.27,-371.2"/>
<text text-anchor="start" x="396.27" y="-383.4" font-family="Arial" font-size="14.00">quantity </text>
<text text-anchor="start" x="449.2" y="-383.4" font-family="Arial" font-size="14.00" fill="#666666">[int]</text>
<polygon fill="none" stroke="black" points="389.27,-340.4 389.27,-371.2 630.73,-371.2 630.73,-340.4 389.27,-340.4"/>
<text text-anchor="start" x="396.27" y="-352.6" font-family="Arial" font-size="14.00">price_at_purchase </text>
<text text-anchor="start" x="515.35" y="-352.6" font-family="Arial" font-size="14.00" fill="#666666">[decimal(10,2)]</text>
</g>
<!-- orders -->
<g id="node3" class="node">
<title>orders</title>
<polygon fill="#efefef" stroke="none" points="414.29,-182.4 414.29,-218 605.71,-218 605.71,-182.4 414.29,-182.4"/>
<polygon fill="none" stroke="black" points="414.29,-182.4 414.29,-218 605.71,-218 605.71,-182.4 414.29,-182.4"/>
<text text-anchor="start" x="425.26" y="-195.8" font-family="Arial Bold" font-size="18.00">orders</text>
<text text-anchor="start" x="470.25" y="-195.8" font-family="Arial" font-size="14.00">    </text>
<text text-anchor="start" x="501.36" y="-195.8" font-family="Arial" font-size="14.00" fill="#666666">[BASE TABLE]</text>
<polygon fill="none" stroke="black" points="414.29,-151.6 414.29,-182.4 605.71,-182.4 605.71,-151.6 414.29,-151.6"/>
<text text-anchor="start" x="421.29" y="-163.8" font-family="Arial" font-size="14.00">id </text>
<text text-anchor="start" x="436.07" y="-163.8" font-family="Arial" font-size="14.00" fill="#666666">[int]</text>
<polygon fill="none" stroke="black" points="414.29,-120.8 414.29,-151.6 605.71,-151.6 605.71,-120.8 414.29,-120.8"/>
<text text-anchor="start" x="421.29" y="-133" font-family="Arial" font-size="14.00">user_id </text>
<text text-anchor="start" x="471.09" y="-133" font-family="Arial" font-size="14.00" fill="#666666">[int]</text>
<polygon fill="none" stroke="black" points="414.29,-90 414.29,-120.8 605.71,-120.8 605.71,-90 414.29,-90"/>
<text text-anchor="start" x="421.29" y="-102.2" font-family="Arial" font-size="14.00">order_date </text>
<text text-anchor="start" x="492.89" y="-102.2" font-family="Arial" font-size="14.00" fill="#666666">[timestamp]</text>
<polygon fill="none" stroke="black" points="414.29,-59.2 414.29,-90 605.71,-90 605.71,-59.2 414.29,-59.2"/>
<text text-anchor="start" x="421.29" y="-71.4" font-family="Arial" font-size="14.00">total_amount </text>
<text text-anchor="start" x="506.12" y="-71.4" font-family="Arial" font-size="14.00" fill="#666666">[decimal(10,2)]</text>
</g>
<!-- ordered_items&#45;&gt;orders -->
<g id="edge1" class="edge">
<title>ordered_items:order_id&#45;&gt;orders:id</title>
<path fill="none" stroke="black" d="M641.55,-445.6C691.51,-417.25 665.9,-167 606.71,-167"/>
<polygon fill="black" stroke="black" points="641.72,-445.55 630.9,-443.76 636.56,-446.92 632.37,-448.03 632.37,-448.03 632.37,-448.03 636.56,-446.92 633.2,-452.46 641.72,-445.55"/>
<text text-anchor="start" x="638.73" y="-458.2" font-family="Arial" font-size="10.00">FOREIGN KEY (order_id) REFERENCES orders (id)</text>
</g>
</g>
</svg>
