<?xml version="1.0" encoding="UTF-8" standalone="no"?>
<!DOCTYPE svg PUBLIC "-//W3C//DTD SVG 1.1//EN"
 "http://www.w3.org/Graphics/SVG/1.1/DTD/svg11.dtd">
<!-- Generated by graphviz version 12.1.2 (20240928.0832)
 -->
<!-- Title: 注文 Pages: 1 -->
<svg width="987pt" height="918pt"
 viewBox="0.00 0.00 986.58 918.00" xmlns="http://www.w3.org/2000/svg" xmlns:xlink="http://www.w3.org/1999/xlink">
<g id="graph0" class="graph" transform="scale(1 1) rotate(0) translate(4 914)">
<title>注文</title>
<polygon fill="white" stroke="none" points="-4,4 -4,-914 982.58,-914 982.58,4 -4,4"/>
<g id="clust1" class="cluster">
<title>cluster_group_0</title>
<path fill="none" stroke="#1f91be" stroke-width="2" d="M94.67,-273.2C94.67,-273.2 646.67,-273.2 646.67,-273.2 652.67,-273.2 658.67,-279.2 658.67,-285.2 658.67,-285.2 658.67,-890 658.67,-890 658.67,-896 652.67,-902 646.67,-902 646.67,-902 94.67,-902 94.67,-902 88.67,-902 82.67,-896 82.67,-890 82.67,-890 82.67,-285.2 82.67,-285.2 82.67,-279.2 88.67,-273.2 94.67,-273.2"/>
<text text-anchor="middle" x="370.67" y="-885.4" font-family="Arial" font-size="14.00">注文</text>
</g>
<!-- items -->
<g id="node1" class="node">
<title>items</title>
<polygon fill="#efefef" stroke="none" points="429.92,-478.4 429.92,-514 607.41,-514 607.41,-478.4 429.92,-478.4"/>
<polygon fill="none" stroke="black" points="429.92,-478.4 429.92,-514 607.41,-514 607.41,-478.4 429.92,-478.4"/>
<text text-anchor="start" x="436.92" y="-491.8" font-family="Arial Bold" font-size="18.00">items</text>
<text text-anchor="start" x="475.92" y="-491.8" font-family="Arial" font-size="14.00">    </text>
<text text-anchor="start" x="507.04" y="-491.8" font-family="Arial" font-size="14.00" fill="#666666">[BASE TABLE]</text>
<polygon fill="none" stroke="black" points="429.92,-447.6 429.92,-478.4 607.41,-478.4 607.41,-447.6 429.92,-447.6"/>
<text text-anchor="start" x="436.92" y="-459.8" font-family="Arial" font-size="14.00">id </text>
<text text-anchor="start" x="451.71" y="-459.8" font-family="Arial" font-size="14.00" fill="#666666">[int]</text>
<polygon fill="none" stroke="black" points="429.92,-416.8 429.92,-447.6 607.41,-447.6 607.41,-416.8 429.92,-416.8"/>
<text text-anchor="start" x="436.92" y="-429" font-family="Arial" font-size="14.00">name </text>
<text text-anchor="start" x="475.83" y="-429" font-family="Arial" font-size="14.00" fill="#666666">[varchar(255)]</text>
<polygon fill="none" stroke="black" points="429.92,-386 429.92,-416.8 607.41,-416.8 607.41,-386 429.92,-386"/>
<text text-anchor="start" x="436.92" y="-398.2" font-family="Arial" font-size="14.00">description </text>
<text text-anchor="start" x="508.52" y="-398.2" font-family="Arial" font-size="14.00" fill="#666666">[text]</text>
<polygon fill="none" stroke="black" points="429.92,-355.2 429.92,-386 607.41,-386 607.41,-355.2 429.92,-355.2"/>
<text text-anchor="start" x="436.92" y="-367.4" font-family="Arial" font-size="14.00">price </text>
<text text-anchor="start" x="471.16" y="-367.4" font-family="Arial" font-size="14.00" fill="#666666">[decimal(10,2)]</text>
<polygon fill="none" stroke="black" points="429.92,-324.4 429.92,-355.2 607.41,-355.2 607.41,-324.4 429.92,-324.4"/>
<text text-anchor="start" x="436.92" y="-336.6" font-family="Arial" font-size="14.00">stock </text>
<text text-anchor="start" x="473.49" y="-336.6" font-family="Arial" font-size="14.00" fill="#666666">[int]</text>
</g>
<!-- ordered_items -->
<g id="node2" class="node">
<title>ordered_items</title>
<polygon fill="#efefef" stroke="none" points="248.94,-790.4 248.94,-826 490.39,-826 490.39,-790.4 248.94,-790.4"/>
<polygon fill="none" stroke="black" points="248.94,-790.4 248.94,-826 490.39,-826 490.39,-790.4 248.94,-790.4"/>
<text text-anchor="start" x="255.94" y="-803.8" font-family="Arial Bold" font-size="18.00">ordered_items</text>
<text text-anchor="start" x="358.9" y="-803.8" font-family="Arial" font-size="14.00">    </text>
<text text-anchor="start" x="390.02" y="-803.8" font-family="Arial" font-size="14.00" fill="#666666">[BASE TABLE]</text>
<polygon fill="none" stroke="black" points="248.94,-759.6 248.94,-790.4 490.39,-790.4 490.39,-759.6 248.94,-759.6"/>
<text text-anchor="start" x="255.94" y="-771.8" font-family="Arial" font-size="14.00">id </text>
<text text-anchor="start" x="270.73" y="-771.8" font-family="Arial" font-size="14.00" fill="#666666">[int]</text>
<polygon fill="none" stroke="black" points="248.94,-728.8 248.94,-759.6 490.39,-759.6 490.39,-728.8 248.94,-728.8"/>
<text text-anchor="start" x="255.94" y="-741" font-family="Arial" font-size="14.00">order_id </text>
<text text-anchor="start" x="311.2" y="-741" font-family="Arial" font-size="14.00" fill="#666666">[int]</text>
<polygon fill="none" stroke="black" points="248.94,-698 248.94,-728.8 490.39,-728.8 490.39,-698 248.94,-698"/>
<text text-anchor="start" x="255.94" y="-710.2" font-family="Arial" font-size="14.00">item_id </text>
<text text-anchor="start" x="304.96" y="-710.2" font-family="Arial" font-size="14.00" fill="#666666">[int]</text>
<polygon fill="none" stroke="black" points="248.94,-667.2 248.94,-698 490.39,-698 490.39,-667.2 248.94,-667.2"/>
<text text-anchor="start" x="255.94" y="-679.4" font-family="Arial" font-size="14.00">quantity </text>
<text text-anchor="start" x="308.86" y="-679.4" font-family="Arial" font-size="14.00" fill="#666666">[int]</text>
<polygon fill="none" stroke="black" points="248.94,-636.4 248.94,-667.2 490.39,-667.2 490.39,-636.4 248.94,-636.4"/>
<text text-anchor="start" x="255.94" y="-648.6" font-family="Arial" font-size="14.00">price_at_purchase </text>
<text text-anchor="start" x="375.02" y="-648.6" font-family="Arial" font-size="14.00" fill="#666666">[decimal(10,2)]</text>
</g>
<!-- ordered_items&#45;&gt;items -->
<g id="edge4" class="edge">
<title>ordered_items:item_id&#45;&gt;items:id</title>
<path fill="none" stroke="black" d="M501.49,-712.34C540.91,-703.15 515.12,-636.28 490.39,-593.2 474.82,-566.07 445.53,-584.31 429.92,-557.2 409.04,-520.91 387.05,-463 428.92,-463"/>
<polygon fill="black" stroke="black" points="501.67,-712.32 491.26,-708.89 496.37,-712.88 492.06,-713.33 492.06,-713.33 492.06,-713.33 496.37,-712.88 492.2,-717.84 501.67,-712.32"/>
<text text-anchor="start" x="438.64" y="-697.4" font-family="Arial" font-size="10.00">FOREIGN KEY (item_id) REFERENCES items (id)</text>
</g>
<!-- orders -->
<g id="node3" class="node">
<title>orders</title>
<polygon fill="#efefef" stroke="none" points="133.95,-463 133.95,-498.6 325.38,-498.6 325.38,-463 133.95,-463"/>
<polygon fill="none" stroke="black" points="133.95,-463 133.95,-498.6 325.38,-498.6 325.38,-463 133.95,-463"/>
<text text-anchor="start" x="144.93" y="-476.4" font-family="Arial Bold" font-size="18.00">orders</text>
<text text-anchor="start" x="189.91" y="-476.4" font-family="Arial" font-size="14.00">    </text>
<text text-anchor="start" x="221.03" y="-476.4" font-family="Arial" font-size="14.00" fill="#666666">[BASE TABLE]</text>
<polygon fill="none" stroke="black" points="133.95,-432.2 133.95,-463 325.38,-463 325.38,-432.2 133.95,-432.2"/>
<text text-anchor="start" x="140.95" y="-444.4" font-family="Arial" font-size="14.00">id </text>
<text text-anchor="start" x="155.74" y="-444.4" font-family="Arial" font-size="14.00" fill="#666666">[int]</text>
<polygon fill="none" stroke="black" points="133.95,-401.4 133.95,-432.2 325.38,-432.2 325.38,-401.4 133.95,-401.4"/>
<text text-anchor="start" x="140.95" y="-413.6" font-family="Arial" font-size="14.00">user_id </text>
<text text-anchor="start" x="190.76" y="-413.6" font-family="Arial" font-size="14.00" fill="#666666">[int]</text>
<polygon fill="none" stroke="black" points="133.95,-370.6 133.95,-401.4 325.38,-401.4 325.38,-370.6 133.95,-370.6"/>
<text text-anchor="start" x="140.95" y="-382.8" font-family="Arial" font-size="14.00">order_date </text>
<text text-anchor="start" x="212.56" y="-382.8" font-family="Arial" font-size="14.00" fill="#666666">[timestamp]</text>
<polygon fill="none" stroke="black" points="133.95,-339.8 133.95,-370.6 325.38,-370.6 325.38,-339.8 133.95,-339.8"/>
<text text-anchor="start" x="140.95" y="-352" font-family="Arial" font-size="14.00">total_amount </text>
<text text-anchor="start" x="225.79" y="-352" font-family="Arial" font-size="14.00" fill="#666666">[decimal(10,2)]</text>
</g>
<!-- ordered_items&#45;&gt;orders -->
<g id="edge3" class="edge">
<title>ordered_items:order_id&#45;&gt;orders:id</title>
<path fill="none" stroke="black" d="M237.84,-743.4C184.79,-734.25 218.93,-649.1 248.94,-593.2 268.31,-557.13 305.94,-577.83 325.38,-541.8 345.26,-504.95 368.25,-447.6 326.38,-447.6"/>
<polygon fill="black" stroke="black" points="237.64,-743.38 247.25,-748.66 242.96,-743.8 247.27,-744.15 247.27,-744.15 247.27,-744.15 242.96,-743.8 247.96,-739.69 237.64,-743.38"/>
<text text-anchor="start" x="7" y="-754.2" font-family="Arial" font-size="10.00">FOREIGN KEY (order_id) REFERENCES orders (id)</text>
</g>
<!-- users -->
<g id="node5" class="node">
<title>users</title>
<polygon fill="#efefef" stroke="none" points="388.12,-166.4 388.12,-202 591.21,-202 591.21,-166.4 388.12,-166.4"/>
<polygon fill="none" stroke="black" points="388.12,-166.4 388.12,-202 591.21,-202 591.21,-166.4 388.12,-166.4"/>
<text text-anchor="start" x="408.93" y="-179.8" font-family="Arial Bold" font-size="18.00">users</text>
<text text-anchor="start" x="445.92" y="-179.8" font-family="Arial" font-size="14.00">    </text>
<text text-anchor="start" x="477.04" y="-179.8" font-family="Arial" font-size="14.00" fill="#666666">[BASE TABLE]</text>
<polygon fill="none" stroke="black" points="388.12,-135.6 388.12,-166.4 591.21,-166.4 591.21,-135.6 388.12,-135.6"/>
<text text-anchor="start" x="395.12" y="-147.8" font-family="Arial" font-size="14.00">id </text>
<text text-anchor="start" x="409.91" y="-147.8" font-family="Arial" font-size="14.00" fill="#666666">[int]</text>
<polygon fill="none" stroke="black" points="388.12,-104.8 388.12,-135.6 591.21,-135.6 591.21,-104.8 388.12,-104.8"/>
<text text-anchor="start" x="395.12" y="-117" font-family="Arial" font-size="14.00">username </text>
<text text-anchor="start" x="461.26" y="-117" font-family="Arial" font-size="14.00" fill="#666666">[varchar(255)]</text>
<polygon fill="none" stroke="black" points="388.12,-74 388.12,-104.8 591.21,-104.8 591.21,-74 388.12,-74"/>
<text text-anchor="start" x="395.12" y="-86.2" font-family="Arial" font-size="14.00">email </text>
<text text-anchor="start" x="432.46" y="-86.2" font-family="Arial" font-size="14.00" fill="#666666">[varchar(255)]</text>
<polygon fill="none" stroke="black" points="388.12,-43.2 388.12,-74 591.21,-74 591.21,-43.2 388.12,-43.2"/>
<text text-anchor="start" x="395.12" y="-55.4" font-family="Arial" font-size="14.00">password_hash </text>
<text text-anchor="start" x="497.07" y="-55.4" font-family="Arial" font-size="14.00" fill="#666666">[varchar(255)]</text>
</g>
<!-- orders&#45;&gt;users -->
<g id="edge5" class="edge">
<title>orders:user_id&#45;&gt;users:id</title>
<path fill="none" stroke="black" d="M336.57,-416.08C436.84,-400.95 269.61,-151 387.12,-151"/>
<polygon fill="black" stroke="black" points="336.69,-416.08 326.4,-412.29 331.37,-416.45 327.05,-416.75 327.05,-416.75 327.05,-416.75 331.37,-416.45 327.03,-421.27 336.69,-416.08"/>
<text text-anchor="start" x="333.38" y="-426.8" font-family="Arial" font-size="10.00">FOREIGN KEY (user_id) REFERENCES users (id)</text>
</g>
<!-- current_cart -->
<g id="node4" class="node">
<title>current_cart</title>
<polygon fill="#efefef" stroke="none" points="709.95,-775 709.95,-810.6 935.38,-810.6 935.38,-775 709.95,-775"/>
<polygon fill="none" stroke="black" points="709.95,-775 709.95,-810.6 935.38,-810.6 935.38,-775 709.95,-775"/>
<text text-anchor="start" x="716.95" y="-788.4" font-family="Arial Bold" font-size="18.00">current_cart</text>
<text text-anchor="start" x="803.89" y="-788.4" font-family="Arial" font-size="14.00">    </text>
<text text-anchor="start" x="835.01" y="-788.4" font-family="Arial" font-size="14.00" fill="#666666">[BASE TABLE]</text>
<polygon fill="none" stroke="black" points="709.95,-744.2 709.95,-775 935.38,-775 935.38,-744.2 709.95,-744.2"/>
<text text-anchor="start" x="716.95" y="-756.4" font-family="Arial" font-size="14.00">id </text>
<text text-anchor="start" x="731.74" y="-756.4" font-family="Arial" font-size="14.00" fill="#666666">[int]</text>
<polygon fill="none" stroke="black" points="709.95,-713.4 709.95,-744.2 935.38,-744.2 935.38,-713.4 709.95,-713.4"/>
<text text-anchor="start" x="716.95" y="-725.6" font-family="Arial" font-size="14.00">user_id </text>
<text text-anchor="start" x="766.76" y="-725.6" font-family="Arial" font-size="14.00" fill="#666666">[int]</text>
<polygon fill="none" stroke="black" points="709.95,-682.6 709.95,-713.4 935.38,-713.4 935.38,-682.6 709.95,-682.6"/>
<text text-anchor="start" x="716.95" y="-694.8" font-family="Arial" font-size="14.00">item_id </text>
<text text-anchor="start" x="765.97" y="-694.8" font-family="Arial" font-size="14.00" fill="#666666">[int]</text>
<polygon fill="none" stroke="black" points="709.95,-651.8 709.95,-682.6 935.38,-682.6 935.38,-651.8 709.95,-651.8"/>
<text text-anchor="start" x="716.95" y="-664" font-family="Arial" font-size="14.00">quantity </text>
<text text-anchor="start" x="769.88" y="-664" font-family="Arial" font-size="14.00" fill="#666666">[int]</text>
</g>
<!-- current_cart&#45;&gt;items -->
<g id="edge2" class="edge">
<title>current_cart:item_id&#45;&gt;items:id</title>
<path fill="none" stroke="black" d="M702.36,-690.18C679.66,-649.41 621.06,-463 608.41,-463"/>
<polygon fill="black" stroke="black" points="702.29,-690.1 705.29,-700.64 705.73,-694.18 708.52,-697.49 708.52,-697.49 708.52,-697.49 705.73,-694.18 712.18,-694.84 702.29,-690.1"/>
<text text-anchor="start" x="476.92" y="-682" font-family="Arial" font-size="10.00">FOREIGN KEY (item_id) REFERENCES items (id)</text>
</g>
<!-- current_cart&#45;&gt;users -->
<g id="edge1" class="edge">
<title>current_cart:user_id&#45;&gt;users:id</title>
<path fill="none" stroke="black" d="M699.97,-723.93C660.53,-677.8 677.28,-318.5 662.67,-273.2 643.42,-213.54 654.91,-151 592.21,-151"/>
<polygon fill="black" stroke="black" points="699.87,-723.87 706.51,-732.6 704.56,-726.42 708.36,-728.48 708.36,-728.48 708.36,-728.48 704.56,-726.42 710.8,-724.68 699.87,-723.87"/>
<text text-anchor="start" x="475.79" y="-738.8" font-family="Arial" font-size="10.00">FOREIGN KEY (user_id) REFERENCES users (id)</text>
</g>
</g>
</svg>
